<svg width="146" height="244" viewBox="0 0 146 244" fill="none" xmlns="http://www.w3.org/2000/svg">
<path d="M70.36 6L81.9236 239M70.36 6L84.2349 13.7405M70.36 6L57.0338 21.1144M70.36 6L112.111 29.2917M81.9236 239L97.2436 232.063M81.9236 239L65.1442 233.165M84.2349 13.7405L97.2436 232.063M84.2349 13.7405L112.111 29.2917M97.2436 232.063L129.85 217.299M65.1442 233.165L5 212.25L16.0107 67.6423L57.0338 21.1144M65.1442 233.165L57.0338 21.1144M112.111 29.2917L122.48 35.0765L141 212.25L129.85 217.299M112.111 29.2917L129.85 217.299" stroke="#CC1F1F" stroke-width="8"/>
</svg>
