<svg width="347" height="215" viewBox="0 0 347 215" fill="none" xmlns="http://www.w3.org/2000/svg">
<path d="M37.1353 210L4 207.287V76.2159L37.1353 61.9727M37.1353 210L322.609 207.287M37.1353 210V143.701M37.1353 61.9727L234.078 82.4897M37.1353 61.9727V117.223M322.609 207.287H343V13.9868L315.472 5M322.609 207.287V146.754M234.078 82.4897V40.7775L315.472 5M234.078 82.4897L315.472 91.6195M315.472 5V91.6195M315.472 91.6195L322.609 92.1547V110.637M37.1353 117.223L322.609 127.593M37.1353 117.223V143.701M322.609 127.593V146.754M322.609 127.593V119.793V110.637M37.1353 91.1373L322.609 110.637M37.1353 143.701L322.609 146.754" stroke="#CC1F1F" stroke-width="8"/>
</svg>
