<svg width="349" height="189" viewBox="0 0 349 189" fill="none" xmlns="http://www.w3.org/2000/svg">
<path d="M77.7016 5L9.98048 17.9423L5 174.659L72.0582 184M77.7016 5L166.672 10.4698M77.7016 5L76.7575 35.2296L75.7286 68.1765L72.0582 184M166.672 10.4698L209.113 5M166.672 10.4698L163.268 175.848M209.113 5L223.232 6.07239M209.113 5L203.941 179.075M223.232 6.07239L223.006 13.1518L344 21.6433L343.243 47.2875L342.433 76.6679L340.255 157.53L219.318 171.093M223.232 6.07239L219.318 171.093M203.941 179.075L163.268 175.848M203.941 179.075L219.318 176.867V171.093M163.268 175.848L72.0582 184" stroke="#CC1F1F" stroke-width="8"/>
</svg>
