<svg width="180" height="249" viewBox="0 0 180 249" fill="none" xmlns="http://www.w3.org/2000/svg">
<path d="M5 239.545L8.88964 44.2345L24.5922 27.1323M5 239.545L21.1348 230.203M5 239.545L164.907 244L176 234.371M24.5922 27.1323L21.1348 230.203M24.5922 27.1323L38.278 28.7132M51.9638 30.294V5M51.9638 30.294L38.278 28.7132M51.9638 30.294L47.9301 230.203L98.6394 232.068M51.9638 5L98.6394 11.3235V34.7492M51.9638 5L38.278 28.7132M98.6394 34.7492L176 44.2345V234.371M98.6394 34.7492V232.068M176 234.371L98.6394 232.068M21.1348 230.203L34.1003 230.515M38.278 28.7132L34.1003 230.515M98.6394 232.068L34.1003 230.515" stroke="#CC1F1F" stroke-width="8"/>
</svg>
