<svg width="86" height="54" viewBox="0 0 86 54" fill="none" xmlns="http://www.w3.org/2000/svg">
<path d="M9.21053 53L1 52.3251V19.7171L9.21053 16.1737M9.21053 53L79.9474 52.3251M9.21053 53V36.5062M9.21053 16.1737L58.0105 21.2779M9.21053 16.1737V29.919M79.9474 52.3251H85V4.23573L78.179 2M79.9474 52.3251V37.2655M58.0105 21.2779V10.9007L78.179 2M58.0105 21.2779L78.179 23.5492M78.179 2V23.5492M78.179 23.5492L79.9474 23.6824V28.2804M9.21053 29.919L79.9474 32.4988M9.21053 29.919V36.5062M79.9474 32.4988V37.2655M79.9474 32.4988V30.5583V28.2804M9.21053 23.4293L79.9474 28.2804M9.21053 36.5062L79.9474 37.2655" stroke="white" stroke-width="2"/>
</svg>
