<?xml version="1.0" encoding="utf-8"?>
<!-- Generator: Adobe Illustrator 26.0.1, SVG Export Plug-In . SVG Version: 6.00 Build 0)  -->
<svg version="1.1" id="Ebene_1" xmlns="http://www.w3.org/2000/svg" xmlns:xlink="http://www.w3.org/1999/xlink" x="0px" y="0px"
	 viewBox="0 0 1351 2064.2" style="enable-background:new 0 0 1351 2064.2;" xml:space="preserve">
<style type="text/css">
	.st0{fill:#CF3201;}
</style>
<g>
	<g>
		<path class="st0" d="M116,700.6c-0.1-13,0.1-31.9-0.1-41.1C115.8,676,115.8,688.4,116,700.6z M116,1405.5
			c-0.3-3.2-0.1-21.7-0.2-31.9C116.2,1376.8,116,1395.2,116,1405.5z M115.9,892.2c0.2,4.7,0.1,19.7,0,25.1
			C115.6,911.7,115.9,899.1,115.9,892.2z M115.6,383.5c0.1,1.7,0.1,18.8,0,20.5C115.6,393.4,115.5,390.2,115.6,383.5z M115.6,543.2
			c-0.2-1.7,0-12.8-0.1-18.3c-0.1,0.4-0.1,4.2-0.1,6.8c-0.2-1,0-11.2-0.1-16c0.1,1.7,0.1,4.1,0.2,6.8c0.2-6.9,0-23.5,0.1-34.2
			C115.8,502.7,115.7,528.3,115.6,543.2z M115,864.8c0.2,3.2,0,15.9,0.1,22.8C114.9,884.5,115,871.8,115,864.8z M114.8,123.4
			c-0.1,7.3-0.3,9.2-0.4,18.2C114.2,137.7,114.4,122.4,114.8,123.4z M99.1,910.5c0.2,4.7,0,18.9,0.1,27.4
			C99,933.2,99.2,918.9,99.1,910.5z M98.1,328.7c-0.2-2.3,0.1-10.5,0-18.2C98.4,314.3,98.2,322.9,98.1,328.7z M97,645.8
			c-0.2-5.4,0-20.5-0.1-29.7C97.2,618.3,97.1,640.2,97,645.8z M97.1,728c-0.3-4-0.2-19.3-0.3-29.7C97.1,702.3,96.9,720.6,97.1,728z
			 M112.6,80.1c0,5.7-0.1,12.1,0.2,18.2c-0.2,10.1-0.3,24-0.4,38.8c0,1.8,0.1,2.3,0.1,4.6c0.2-1.4,0.6,3.7,0.5-4.6
			c0.5,7.2,0,23.3-0.3,22.8c-0.1,7,0.1,8.3,0.1,13.7c0.3-9.6,0.7-13.7,0.5-27.4c0.4,0.1,0.5,1,1-2.3c0,12.6,0.2,12.4,0.6,18.2
			c-0.1,5.4-0.2,11.2-0.2,18.3c0,3,0.2,3.6,0.2,6.8c0.3,1.7,0.2-6.3,0.4-4.6c-0.5,112.7-0.1,227.6-0.4,344.5c0.7,29.9,0,45,0.2,79.8
			c0.3-4,0.1-22.3,0.3-29.7c0.2,84.5-0.1,174.4,0.3,241.8c-0.4,33.3-0.4,80.4-0.4,118.6c0,7.9,0.2-0.2,0.3,4.6
			c0,27-0.1,27.6-0.1,52.5c-0.6-3.2-0.5-23.1-0.5-41.1c-0.1,18.3-0.3,56.1,0,57c0,41.4,0.1,72.9,0.1,118.6c0.2,5.1,0.1,15,0.4,16
			c0,16.7,0,34.5,0.2,45.6c0.2-3.2,0-15.9,0.1-22.8c0.4,13.3,0.3,49.3-0.3,54.7c0,41.7-0.1,85.8,0.3,118.6
			c-0.9,33.5-0.2,76-0.4,120.9c0.2-29.5,0.2,16.6,0.3,20.5c0.1,24.9,0.3,50.1,0.4,73c0.3,43.1,0,77.9,0.1,107.2
			c0.3,72.4,0,145.3-0.4,205.3c0,6.5,0.2,9.5,0.2,16c-0.1-0.1-0.1-2.8-0.1-4.6c-0.5,18.6-1.5,42.6-2.4,20.5
			c-0.4,2-0.7,11.9-1.1,20.5c-1.2-14-2.7-7.1-3.8-27.4c-0.9,12-2-0.1-3,0c-1.1,0.1-2.4,12.3-3.1-11.4c-3.6-7.9-2.2-142.9-1.9-212.2
			c-0.5-40.8,0.3-83.6,0.1-130c0-6.8-0.2-7.8-0.3-13.7c0.3-65.2-0.2-123.2-0.2-180.2c-0.2,35.6-0.1,52.5-0.2,93.5
			c-0.1,17-0.1-7.4-0.1-13.7c-0.3-128.3-0.4-291.9-0.5-456.3c0-17.2,0.3-38.9-0.1-47.9c0.1-25.5,0.1-41.3,0-63.9
			c-0.1-1-0.1,12.4,0,11.4c-0.6-19-0.1-67.4-0.4-100.4c-0.6,37.4-0.1,126.7-0.3,168.8c-0.2-75.1,0-140.3-0.4-209.9
			c0.2,0.9,0-10.4,0.3-6.8c-0.1-38.4,0-71.2,0-102.7c0-22.3-0.4-45,0-66.2c0.2-136.4,0.2-252,0.9-365c0.3,6.2-0.3,10.3,0,18.3
			c0.1-7.2,0.2-17,0.4-22.8c-0.4-11-0.1-63.1,0.8-70.7c-0.1,17-0.4,29.8-0.4,50.2c0.2-4,0.1-17,0.4-18.2c0.1,10.7-0.1,30.6-0.2,43.3
			c0,3.2,0.2,0.2,0.2-2.3c0,28.9-0.7,61.6-0.3,93.5c0.1-13-0.1-32.9,0.3-43.4c0.1,3.5-0.1,17.5,0,27.4c0.3-12,0.2-20,0.3-34.2
			c-0.4,10.5,0-9.3-0.1-18.3c0.3,22.9,0.4,49.3,1.1,34.2c0.1-32.8,0.1-37.5,0.1-59.3c-0.2,4.1,0,8.4-0.4,4.6c0,3.8,0,7.6,0,11.4
			c0-12.3-0.5-19.8-0.5-36.5c0.1,0.7,0.1,5.7,0.1,9.1c0.3-1.4,0.4-7.7,0.4-16c0.2,0.4,0.1,10.9,0.4,9.1c0.3-1.5-0.1-4.9,0-9.1
			c0.3-1.1,0.1,10.5,0.3,11.4c0-9.6,0.2-20.9,0.2-38.8c0.1,1,0.2,2.9,0.2,6.8c0.2-5.5,0-18.2,0-25.1c0.4,1.2,0.3-11,0.7-11.4
			c-0.4,14,0.2,18.2-0.3,22.8c0.6,9.6,0.2,32.2,0.4,52.5c0.1-10.7,0.1-26.1,0.2-38.8c0.1,1.5,0.2,4.9,0.2,9.1c0.1-0.9,0.3-8.9,0-6.8
			c0.2-7,0.3,6.7,0.4,9.1c0-3,0-6,0.4-4.6c0.1,10.3-0.5,30.2,0,43.3c-0.1,3-0.1,6.9-0.3,9.1c0.1,8,0.4,11.9,0.3,25.1
			c-0.2-13.8-0.2,5.3-0.5,6.9c0.3,0.4,0.1,29.2,0.3,41.1c0.2-11.4,0.1-37.1,0.1-45.6c0.1,1.7,0.1,4.2,0.2,6.8
			c0.1-21.1,0.3-45.4-0.1-66.2c0.3-0.7,0.2-10.5,0.4-16c0-8.4-0.4-6.6-0.4-16c0.6-1.4,0.7,3.3,0.8,18.3c0.1-16.9-0.2-44.1,0.9-50.2
			c-0.6,15.1-0.7,36.3-0.6,61.6c0.2-9.1-0.1-32.4,0.3-38.8c0,6.6,0.2,6.4,0.3,11.4c0.3-5.5,0.1-2.2,0.4-11.4
			c0.2,4.5-0.2,11.4-0.1,20.5c0.3,3.6,0.2-14.8,0.3-2.3c0.1,1,0.3-8.5,0.1-9.1c0.1,0.7,0.5,8.8,0.8,6.8c0.1,12.3-0.1,6.6,0.1,20.5
			c0.5-5.1-0.2-21.2,0.1-27.4c-0.2,2.2-0.6-10-0.6,2.3c-0.4-6,0-12.4,0.3-18.2c0.3,1.9-0.1,7.3,0,11.4c0.7,5.8,1.6-27.2,1.9-9.1
			c0.2,1.6,0.2-4.7,0.3-6.8c0.4,11.3,0.1,25,0.4,38.8c0.1-4.7,0.1-25,0-29.7c0.1-7.3,0.3,2.2,0.2,6.8c0.6-4.4,0.1-36.1,0.2-43.3
			c0.2-2.1,0.4,17.2,0.7,20.5c-0.1,2.7-0.3,4.1-0.2,11.4c-0.2-8.6-0.1,2.6-0.4-2.3c0.4,9.1,0.3,17,0.7,27.4
			c0.4-10.6,0.2-24.6,0.7-38.8c-0.2-12-0.2-17.9,0-29.7C112.2,73.2,112.4,87.4,112.6,80.1z M115,889.9c0.3,3.9-0.1,23.4,0.2,27.4
			c0.1-84.4,0.6-183.9,0-257.8c-0.1,9.2,0.1,24.3-0.1,29.7c0-2.7-0.1-5.2-0.2-6.8c0.2,29.7-0.1,99.2,0.2,139.2c0-2.7,0-6.5-0.1-6.8
			C114.9,835.6,114.6,887.5,115,889.9z M109.1,121.1c-0.2,0-0.4,0-0.5,0c-0.1,36-0.3,82.6,0,120.9c0-34.9,0.1-61,0.3-84.4
			c0.1,1.8,0.1-4,0.3,4.6C109.2,143.3,108.9,138.5,109.1,121.1z M104.3,178.2c0,13.5-0.4,38.3-0.1,54.8c0-7.8-0.1-30.3,0.2-18.3
			C104.6,205,104.4,187.7,104.3,178.2z M101,1574.3c0.1-6.6,0.1-2.6,0.4-2.3c0.1-14.5,0.2-27.6,0.2-45.6
			C101.1,1533.3,100.5,1556.4,101,1574.3z M101.2,1423.8c-0.4,0.2-0.4,31.9,0,31.9C101.4,1443.8,101.2,1438.4,101.2,1423.8z
			 M100.8,956.1c0.1,0.1,0.1,2.9-0.1,2.3c0.3,7.7,0,19.3,0.2,29.6c0.1-4.8,0,3.3,0.2,4.6c-0.1,2.9,0,4.7,0,11.4
			c0.2,18.5,0.1-43.5,0-47.9c0,0,0.1-1.9,0-2.3C101.1,960.9,100.8,948,100.8,956.1z M100.7,830.6c-0.1-24.9-0.2,37.2-0.1,6.8
			c-0.1,32.5,0,86.6,0.3,114.1C100.7,909.3,100.8,871.9,100.7,830.6z M100.1,878.5c-0.2,11.1,0.1,12.8-0.2,22.8
			c0.6,105.3,0,182.8,0.1,278.3C100.9,1091.2,100.3,977.7,100.1,878.5z M100,1015.4c-0.1-6.9,0.1-19.7-0.1-22.8
			C100,999.5,99.8,1012.2,100,1015.4z M98.8,723.4c0.3-3.7,0.3-16.5,0.2-25.1C98.9,706.8,98.7,711.9,98.8,723.4z M115.4,1049.6
			c0.3,13.6,0.1,28.1,0.1,41.1c-0.1,9.6-0.1-20.2-0.2-4.6C115.2,1079.6,115.4,1060.3,115.4,1049.6z M115,157.6
			c0.2-4.9,0.2-3.3,0.5-6.8c-0.1,4.3-0.1,10.8-0.2,16C115.2,163.2,115.1,158.8,115,157.6C114.9,155,115,156.4,115,157.6z"/>
	</g>
</g>
<g>
	<g>
		<path class="st0" d="M1255.1,710c-0.1-13.2,0.1-32.4-0.1-41.7C1254.9,685,1254.9,697.6,1255.1,710z M1255.1,1425.4
			c-0.3-3.3-0.1-22-0.2-32.4C1255.3,1396.3,1255.1,1415,1255.1,1425.4z M1255,904.5c0.2,4.8,0.1,20,0,25.5
			C1254.7,924.3,1254.9,911.4,1255,904.5z M1254.7,388.1c0.1,1.8,0.1,19.1,0,20.8C1254.7,398.2,1254.6,395,1254.7,388.1z
			 M1254.7,550.2c-0.2-1.7,0-13-0.1-18.5c-0.1,0.4-0.1,4.2-0.1,6.9c-0.2-1,0-11.4-0.1-16.2c0.1,1.7,0.1,4.2,0.2,7
			c0.2-7,0-23.9,0.1-34.7C1254.9,509.1,1254.8,535.1,1254.7,550.2z M1254.1,876.7c0.2,3.2,0,16.1,0.1,23.1
			C1254,896.6,1254.1,883.7,1254.1,876.7z M1253.9,124.2c-0.1,7.4-0.3,9.4-0.4,18.5C1253.3,138.6,1253.5,123.1,1253.9,124.2z
			 M1238.2,923c0.2,4.7,0,19.2,0.1,27.8C1238.1,946,1238.3,931.5,1238.2,923z M1237.2,332.5c-0.2-2.4,0.1-10.6,0-18.5
			C1237.5,317.9,1237.3,326.6,1237.2,332.5z M1236.1,654.4c-0.2-5.5,0-20.8-0.1-30.1C1236.3,626.5,1236.2,648.7,1236.1,654.4z
			 M1236.2,737.8c-0.3-4.1-0.2-19.6-0.3-30.1C1236.2,711.7,1236,730.3,1236.2,737.8z M1251.7,80.2c0,5.8-0.1,12.3,0.2,18.5
			c-0.2,10.3-0.3,24.3-0.4,39.4c0,1.9,0.1,2.3,0.1,4.6c0.2-1.4,0.6,3.8,0.5-4.6c0.5,7.3,0,23.7-0.3,23.2c-0.1,7.1,0.1,8.4,0.1,13.9
			c0.3-9.7,0.7-13.9,0.5-27.8c0.4,0.1,0.5,1.1,1-2.3c0,12.8,0.2,12.6,0.6,18.5c-0.1,5.4-0.2,11.4-0.2,18.5c0,3,0.2,3.6,0.2,6.9
			c0.3,1.7,0.2-6.3,0.4-4.6c-0.5,114.4-0.1,231-0.4,349.6c0.7,30.3,0,45.7,0.2,81c0.3-4,0.1-22.6,0.3-30.1
			c0.2,85.8-0.1,177,0.3,245.4c-0.4,33.8-0.4,81.6-0.4,120.4c0,8.1,0.2-0.2,0.3,4.6c0,27.4-0.1,28-0.1,53.2
			c-0.6-3.2-0.5-23.5-0.5-41.7c-0.1,18.5-0.3,56.9,0,57.9c0,42.1,0.1,74,0.1,120.4c0.2,5.1,0.1,15.2,0.4,16.2c0,17,0,35,0.2,46.3
			c0.2-3.2,0-16.1,0.1-23.1c0.4,13.5,0.3,50-0.3,55.6c0,42.3-0.1,87,0.3,120.4c-0.9,34-0.2,77.2-0.4,122.7c0.2-30,0.2,16.9,0.3,20.8
			c0.1,25.2,0.3,50.9,0.4,74.1c0.3,43.8,0,79.1,0.1,108.8c0.3,73.4,0,147.5-0.4,208.4c0,6.5,0.2,9.6,0.2,16.2
			c-0.1-0.1-0.1-2.8-0.1-4.6c-0.5,18.9-1.5,43.2-2.4,20.9c-0.4,2-0.7,12.1-1.1,20.8c-1.2-14.2-2.7-7.2-3.8-27.8c-0.9,12.2-2-0.1-3,0
			c-1.1,0.1-2.4,12.5-3.1-11.6c-3.6-8-2.2-145-1.9-215.3c-0.5-41.4,0.3-84.8,0.1-132c0-6.9-0.2-7.9-0.3-13.9
			c0.3-66.1-0.2-125.1-0.2-182.9c-0.2,36.1-0.1,53.3-0.2,94.9c-0.1,17.2-0.1-7.5-0.1-13.9c-0.3-130.2-0.4-296.3-0.5-463.1
			c0-17.5,0.3-39.5-0.1-48.6c0.1-25.9,0.1-42,0-64.8c-0.1-1-0.1,12.6,0,11.6c-0.6-19.3-0.1-68.5-0.4-101.9
			c-0.6,38-0.1,128.6-0.3,171.3c-0.2-76.2,0-142.4-0.4-213c0.2,0.9,0-10.6,0.3-7c-0.1-38.9,0-72.2,0-104.2c0-22.6-0.4-45.7,0-67.2
			c0.2-138.4,0.2-255.8,0.9-370.5c0.3,6.3-0.3,10.5,0,18.5c0.1-7.3,0.2-17.2,0.4-23.2c-0.4-11.2-0.1-64.1,0.8-71.8
			c-0.1,17.2-0.4,30.3-0.4,50.9c0.2-4,0.1-17.2,0.4-18.5c0.1,10.9-0.1,31.1-0.2,44c0,3.2,0.2,0.2,0.2-2.3c0,29.4-0.7,62.5-0.3,94.9
			c0.1-13.2-0.1-33.4,0.3-44c0.1,3.5-0.1,17.8,0,27.8c0.3-12.2,0.2-20.3,0.3-34.7c-0.4,10.7,0-9.4-0.1-18.5
			c0.3,23.3,0.4,50,1.1,34.7c0.1-33.3,0.1-38,0.1-60.2c-0.2,4.1,0,8.5-0.4,4.6c0,3.9,0,7.7,0,11.6c0-12.5-0.5-20.1-0.5-37
			c0.1,0.7,0.1,5.8,0.1,9.3c0.3-1.5,0.4-7.9,0.4-16.2c0.2,0.4,0.1,11,0.4,9.3c0.3-1.5-0.1-5,0-9.3c0.3-1.1,0.1,10.6,0.3,11.6
			c0-9.8,0.2-21.2,0.2-39.4c0.1,1,0.2,3,0.2,6.9c0.2-5.6,0-18.5,0-25.5c0.4,1.3,0.3-11.1,0.7-11.6c-0.4,14.2,0.2,18.4-0.3,23.1
			c0.6,9.7,0.2,32.7,0.4,53.3c0.1-10.8,0.1-26.5,0.2-39.4c0.1,1.5,0.2,5,0.2,9.3c0.1-0.9,0.3-9,0-7c0.2-7.1,0.3,6.8,0.4,9.3
			c0-3.1,0-6.1,0.4-4.6c0.1,10.4-0.5,30.7,0,44c-0.1,3.1-0.1,7-0.3,9.3c0.1,8.1,0.4,12.1,0.3,25.5c-0.2-14-0.2,5.3-0.5,7
			c0.3,0.4,0.1,29.6,0.3,41.7c0.2-11.5,0.1-37.6,0.1-46.3c0.1,1.7,0.1,4.2,0.2,7c0.1-21.4,0.3-46.1-0.1-67.2
			c0.3-0.7,0.2-10.6,0.4-16.2c0-8.5-0.4-6.7-0.4-16.2c0.6-1.4,0.7,3.4,0.8,18.5c0.1-17.2-0.2-44.7,0.9-50.9
			c-0.6,15.3-0.7,36.8-0.6,62.5c0.2-9.3-0.1-32.8,0.3-39.4c0,6.7,0.2,6.5,0.3,11.6c0.3-5.6,0.1-2.3,0.4-11.6
			c0.2,4.5-0.2,11.6-0.1,20.8c0.3,3.7,0.2-15,0.3-2.3c0.1,1,0.3-8.6,0.1-9.3c0.1,0.7,0.5,9,0.8,6.9c0.1,12.5-0.1,6.7,0.1,20.8
			c0.5-5.2-0.2-21.5,0.1-27.8c-0.2,2.2-0.6-10.2-0.6,2.3c-0.4-6.1,0-12.6,0.3-18.5c0.3,2-0.1,7.4,0,11.6c0.7,5.9,1.6-27.6,1.9-9.3
			c0.2,1.6,0.2-4.8,0.3-7c0.4,11.5,0.1,25.4,0.4,39.4c0.1-4.8,0.1-25.4,0-30.1c0.1-7.5,0.3,2.2,0.2,6.9c0.6-4.5,0.1-36.7,0.2-44
			c0.2-2.2,0.4,17.5,0.7,20.8c-0.1,2.8-0.3,4.2-0.2,11.6c-0.2-8.7-0.1,2.7-0.4-2.3c0.4,9.2,0.3,17.2,0.7,27.8
			c0.4-10.7,0.2-25,0.7-39.4c-0.2-12.2-0.2-18.1,0-30.1C1251.3,73.2,1251.4,87.6,1251.7,80.2z M1254.1,902.1
			c0.3,4-0.1,23.8,0.2,27.8c0.1-85.7,0.6-186.7,0-261.6c-0.1,9.3,0.1,24.6-0.1,30.1c0-2.7-0.1-5.3-0.2-7
			c0.2,30.1-0.1,100.7,0.2,141.2c0-2.7,0-6.6-0.1-7C1254,847,1253.7,899.7,1254.1,902.1z M1248.2,121.8c-0.2,0-0.4,0-0.5,0
			c-0.1,36.5-0.3,83.8,0,122.7c0-35.5,0.1-61.9,0.3-85.7c0.1,1.8,0.1-4,0.3,4.6C1248.3,144.3,1248,139.5,1248.2,121.8z
			 M1243.4,179.7c0,13.7-0.4,38.9-0.1,55.6c0-7.9-0.1-30.8,0.2-18.5C1243.7,206.9,1243.5,189.4,1243.4,179.7z M1240.1,1596.8
			c0.1-6.7,0.1-2.6,0.4-2.3c0.1-14.7,0.2-28,0.2-46.3C1240.2,1555.1,1239.6,1578.5,1240.1,1596.8z M1240.3,1444
			c-0.4,0.2-0.4,32.3,0,32.4C1240.5,1464.3,1240.3,1458.9,1240.3,1444z M1239.9,969.3c0.1,0.1,0.1,3-0.1,2.3
			c0.3,7.9,0,19.6,0.2,30.1c0.1-4.9,0,3.3,0.2,4.6c-0.1,3,0,4.8,0,11.6c0.2,18.8,0.1-44.1,0-48.6c0,0,0.1-1.9,0-2.3
			C1240.2,974.2,1239.9,961.1,1239.9,969.3z M1239.8,841.9c-0.1-25.2-0.2,37.8-0.1,6.9c-0.1,33,0,87.9,0.3,115.8
			C1239.8,921.9,1239.9,883.8,1239.8,841.9z M1239.2,890.6c-0.2,11.2,0.1,13-0.2,23.2c0.6,106.9,0,185.5,0.1,282.5
			C1240,1106.4,1239.4,991.2,1239.2,890.6z M1239.1,1029.5c-0.1-7,0.1-20-0.1-23.1C1239.1,1013.4,1238.9,1026.3,1239.1,1029.5z
			 M1237.9,733.1c0.3-3.8,0.3-16.7,0.2-25.5C1238,716.2,1237.8,721.4,1237.9,733.1z M1254.5,1064.2c0.3,13.8,0.1,28.6,0.1,41.7
			c-0.1,9.8-0.1-20.5-0.2-4.6C1254.3,1094.6,1254.5,1075.1,1254.5,1064.2z M1254.1,158.9c0.2-5,0.2-3.3,0.5-6.9
			c-0.1,4.4-0.1,10.9-0.2,16.2C1254.3,164.5,1254.2,160.1,1254.1,158.9C1254,156.3,1254.1,157.6,1254.1,158.9z"/>
	</g>
</g>
<g>
	<g>
		<path class="st0" d="M889.6,128.2c8.9-0.1,21.8,0.1,28.1-0.1C906.5,128,898,128,889.6,128.2z M406.7,128.2
			c2.2-0.3,14.8-0.1,21.9-0.2C426.4,128.4,413.8,128.2,406.7,128.2z M758.4,128c-3.2,0.2-13.5,0.1-17.2,0
			C745,127.8,753.7,128,758.4,128z M1106.9,127.8c-1.2,0.1-12.9,0.1-14.1,0C1100.1,127.8,1102.2,127.7,1106.9,127.8z M997.5,127.8
			c1.2-0.2,8.8,0,12.5-0.1c-0.3-0.1-2.9-0.1-4.7-0.1c0.7-0.2,7.7,0,10.9-0.1c-1.1,0.1-2.8,0.1-4.7,0.2c4.7,0.2,16.1,0,23.4,0.1
			C1025.2,128,1007.7,127.9,997.5,127.8z M777.1,127.2c-2.2,0.2-10.9,0-15.6,0.1C763.7,127.1,772.4,127.2,777.1,127.2z M1285,127
			c-5-0.1-6.3-0.3-12.5-0.4C1275.3,126.4,1285.7,126.6,1285,127z M745.9,111.3c-3.2,0.2-13,0-18.8,0.1
			C730.3,111.2,740.1,111.4,745.9,111.3z M1144.4,110.3c1.6-0.2,7.2,0.1,12.5,0C1154.3,110.6,1148.4,110.4,1144.4,110.3z
			 M927.2,109.2c3.7-0.2,14,0,20.3-0.1C946,109.4,931,109.3,927.2,109.2z M870.9,109.3c2.7-0.3,13.2-0.2,20.3-0.3
			C888.5,109.3,875.9,109.1,870.9,109.3z M1314.7,124.8c-3.9,0-8.3-0.1-12.5,0.2c-6.9-0.2-16.4-0.3-26.6-0.4c-1.3,0-1.6,0.1-3.1,0.1
			c0.9,0.2-2.5,0.6,3.1,0.5c-4.9,0.5-16,0-15.6-0.3c-4.8-0.1-5.7,0.1-9.4,0.1c6.6,0.3,9.4,0.7,18.7,0.5c-0.1,0.4-0.7,0.5,1.6,1
			c-8.7,0-8.5,0.2-12.5,0.6c-3.7-0.1-7.7-0.2-12.5-0.2c-2.1,0-2.5,0.2-4.7,0.2c-1.2,0.3,4.3,0.2,3.1,0.4
			c-77.2-0.5-155.9-0.1-236-0.4c-20.5,0.7-30.8,0-54.7,0.2c2.7,0.3,15.3,0.1,20.3,0.3c-57.9,0.2-119.5-0.1-165.7,0.3
			c-22.8-0.4-55.1-0.4-81.3-0.4c-5.4,0,0.1,0.2-3.1,0.3c-18.5,0-18.9-0.1-35.9-0.1c2.2-0.6,15.9-0.5,28.1-0.5
			c-12.5-0.1-38.4-0.3-39.1,0c-28.4,0-50,0.1-81.3,0.1c-3.5,0.2-10.3,0.1-10.9,0.4c-11.5,0-23.6,0-31.3,0.2c2.2,0.2,10.9,0,15.6,0.1
			c-9.1,0.4-33.8,0.3-37.5-0.3c-28.6,0-58.7-0.1-81.3,0.3c-23-0.9-52.1-0.2-82.8-0.4c20.2,0.2-11.4,0.2-14.1,0.3
			c-17,0.1-34.3,0.3-50,0.4c-29.5,0.3-53.4,0-73.5,0.1c-49.6,0.3-99.5,0-140.6-0.4c-4.4,0-6.5,0.2-10.9,0.2c0-0.1,1.9-0.1,3.1-0.1
			c-12.8-0.5-29.2-1.5-14.1-2.4c-1.4-0.4-8.2-0.7-14.1-1.1c9.6-1.2,4.8-2.7,18.8-3.8c-8.2-0.9,0.1-2,0-3c-0.1-1.1-8.4-2.4,7.8-3.1
			c5.4-3.6,97.9-2.2,145.3-1.9c28-0.5,57.2,0.3,89.1,0.1c4.7,0,5.3-0.2,9.4-0.3c44.6,0.3,84.4-0.2,123.5-0.2
			c-24.4-0.2-36-0.1-64.1-0.2c-11.6-0.1,5.1-0.1,9.4-0.1c87.9-0.3,200-0.4,312.6-0.5c11.8,0,26.7,0.3,32.8-0.1
			c17.5,0.1,28.3,0.1,43.8,0c0.7-0.1-8.5-0.1-7.8,0c13-0.6,46.2-0.1,68.8-0.4c-25.6-0.6-86.8-0.1-115.6-0.3
			c51.5-0.2,96.1,0,143.8-0.4c-0.6,0.2,7.1,0,4.7,0.3c26.3-0.1,48.7,0,70.3,0c15.3,0,30.8-0.4,45.3,0c93.4,0.2,172.7,0.2,250,0.9
			c-4.2,0.3-7.1-0.3-12.5,0c4.9,0.1,11.6,0.2,15.6,0.4c7.5-0.4,43.3-0.1,48.4,0.8c-11.6-0.1-20.4-0.4-34.4-0.4
			c2.7,0.2,11.6,0.1,12.5,0.4c-7.4,0.1-21-0.1-29.7-0.2c-2.2,0-0.1,0.2,1.6,0.2c-19.8,0-42.2-0.7-64.1-0.3
			c8.9,0.1,22.6-0.1,29.7,0.3c-2.4,0.1-12-0.1-18.8,0c8.2,0.3,13.7,0.2,23.4,0.3c-7.2-0.4,6.4,0,12.5-0.1
			c-15.7,0.3-33.8,0.4-23.4,1.1c22.5,0.1,25.7,0.1,40.6,0.1c-2.8-0.2-5.8,0-3.1-0.4c-2.6,0-5.2,0-7.8,0c8.4,0,13.6-0.5,25-0.5
			c-0.5,0.1-3.9,0.1-6.2,0.1c1,0.3,5.3,0.4,10.9,0.4c-0.3,0.2-7.4,0.1-6.3,0.4c1,0.3,3.3-0.1,6.3,0c0.8,0.3-7.2,0.1-7.8,0.3
			c6.6,0,14.3,0.2,26.6,0.2c-0.7,0.1-2,0.2-4.7,0.2c3.8,0.2,12.5,0,17.2,0c-0.9,0.4,7.5,0.3,7.8,0.7c-9.6-0.4-12.4,0.2-15.6-0.3
			c-6.5,0.6-22.1,0.2-35.9,0.4c7.3,0.1,17.9,0.1,26.6,0.2c-1,0.1-3.3,0.2-6.3,0.2c0.6,0.1,6.1,0.3,4.7,0c4.8,0.2-4.6,0.3-6.2,0.4
			c2.1,0,4.1,0,3.1,0.4c-7.1,0.1-20.7-0.5-29.7,0c-2.1-0.1-4.7-0.1-6.3-0.3c-5.5,0.1-8.1,0.4-17.2,0.3c9.4-0.2-3.6-0.2-4.7-0.5
			c-0.3,0.3-20,0.1-28.1,0.3c7.8,0.2,25.4,0.1,31.3,0.1c-1.1,0.1-2.8,0.1-4.7,0.2c14.4,0.1,31.1,0.3,45.3-0.1
			c0.5,0.3,7.2,0.2,10.9,0.4c5.7,0,4.5-0.4,10.9-0.4c1,0.6-2.3,0.7-12.5,0.8c11.6,0.1,30.2-0.2,34.4,0.9
			c-10.3-0.6-24.8-0.7-42.2-0.6c6.3,0.2,22.2-0.1,26.6,0.3c-4.5,0-4.4,0.2-7.8,0.3c3.8,0.3,1.5,0.1,7.8,0.4
			c-3.1,0.2-7.8-0.2-14.1-0.1c-2.5,0.3,10.1,0.2,1.6,0.3c-0.7,0.1,5.8,0.3,6.2,0.1c-0.5,0.1-6.1,0.5-4.7,0.8
			c-8.4,0.1-4.5-0.1-14.1,0.1c3.5,0.5,14.5-0.2,18.8,0.1c-1.5-0.2,6.9-0.6-1.6-0.6c4.1-0.4,8.5,0,12.5,0.3c-1.3,0.3-5-0.1-7.8,0
			c-4,0.7,18.6,1.6,6.2,1.9c-1.1,0.2,3.2,0.2,4.7,0.3c-7.8,0.4-17.1,0.1-26.6,0.4c3.2,0.1,17.1,0.1,20.3,0c5,0.1-1.5,0.3-4.7,0.2
			c3,0.6,24.7,0.1,29.7,0.2c1.5,0.2-11.8,0.4-14.1,0.7c-1.9-0.1-2.8-0.3-7.8-0.2c5.9-0.2-1.8-0.1,1.6-0.4
			c-6.2,0.4-11.6,0.3-18.7,0.7c7.2,0.4,16.9,0.2,26.6,0.7c8.2-0.2,12.2-0.2,20.3,0C1319.4,124.4,1309.7,124.5,1314.7,124.8z
			 M759.9,127.2c-2.7,0.3-16.1-0.1-18.7,0.2c57.8,0.1,126,0.6,176.6,0c-6.3-0.1-16.6,0.1-20.3-0.1c1.8,0,3.5-0.1,4.7-0.2
			c-20.3,0.2-67.9-0.1-95.3,0.2c1.8,0,4.4,0,4.7-0.1C797.2,127.1,761.6,126.8,759.9,127.2z M1286.6,121.3c0-0.2,0-0.4,0-0.5
			c-24.6-0.1-56.6-0.3-82.8,0c23.9,0,41.8,0.1,57.8,0.3c-1.2,0.1,2.7,0.1-3.1,0.3C1271.4,121.4,1274.7,121.1,1286.6,121.3z
			 M1247.5,116.5c-9.2,0-26.2-0.4-37.5-0.1c5.3,0,20.8-0.1,12.5,0.2C1229.1,116.8,1241,116.6,1247.5,116.5z M291.1,113.2
			c4.6,0.1,1.8,0.1,1.6,0.4c9.9,0.1,18.9,0.2,31.2,0.2C319.2,113.3,303.4,112.7,291.1,113.2z M394.2,113.4c-0.2-0.4-21.8-0.4-21.9,0
			C380.5,113.6,384.2,113.4,394.2,113.4z M714.6,113c-0.1,0.1-2,0.1-1.6-0.1c-5.3,0.3-13.2,0-20.3,0.2c3.3,0.1-2.2,0-3.1,0.2
			c-2-0.1-3.2,0-7.8,0c-12.7,0.2,29.8,0.1,32.8,0c0,0,1.3,0.1,1.6,0C711.3,113.3,720.2,113,714.6,113z M800.6,112.9
			c17-0.1-25.5-0.2-4.7-0.1c-22.3-0.1-59.3,0-78.1,0.3C746.6,112.9,772.3,113,800.6,112.9z M767.8,112.3c-7.6-0.2-8.7,0.1-15.6-0.2
			c-72.1,0.6-125.2,0-190.7,0.1C622.1,113.1,699.8,112.5,767.8,112.3z M674,112.2c4.7-0.1,13.5,0.1,15.6-0.1
			C684.9,112.1,676.2,112,674,112.2z M874,111c2.5,0.3,11.3,0.3,17.2,0.2C885.4,111.1,881.9,110.9,874,111z M650.5,127.6
			c-9.3,0.3-19.3,0.1-28.1,0.1c-6.6-0.1,13.8-0.1,3.1-0.2C630,127.4,643.2,127.6,650.5,127.6z M1261.6,127.2
			c3.4,0.2,2.2,0.2,4.7,0.5c-3-0.1-7.4-0.1-10.9-0.2C1257.8,127.4,1260.8,127.3,1261.6,127.2
			C1263.4,127.1,1262.4,127.2,1261.6,127.2z"/>
	</g>
</g>
<g>
	<g>
		<path class="st0" d="M861.3,1912.1c8.6-0.1,21.1,0.1,27.2-0.1C877.5,1911.9,869.3,1911.9,861.3,1912.1z M394.8,1912.1
			c2.1-0.3,14.3-0.1,21.1-0.2C413.8,1912.3,401.6,1912,394.8,1912.1z M734.4,1911.9c-3.1,0.2-13,0.1-16.6,0
			C721.5,1911.7,729.9,1911.9,734.4,1911.9z M1071.1,1911.7c-1.2,0.1-12.4,0.1-13.6,0C1064.5,1911.7,1066.6,1911.5,1071.1,1911.7z
			 M965.4,1911.7c1.1-0.2,8.5,0,12.1-0.1c-0.3-0.1-2.8-0.1-4.5-0.1c0.6-0.2,7.4,0,10.6-0.1c-1.1,0.1-2.7,0.1-4.5,0.2
			c4.6,0.2,15.6,0,22.6,0.1C992.2,1911.8,975.3,1911.7,965.4,1911.7z M752.6,1911c-2.1,0.2-10.5,0-15.1,0.1
			C739.5,1910.9,748,1911.1,752.6,1911z M1243.2,1910.9c-4.8-0.1-6.1-0.3-12.1-0.4C1233.8,1910.2,1243.9,1910.4,1243.2,1910.9z
			 M722.4,1895.2c-3.1,0.2-12.5,0-18.1,0.1C707.3,1895.1,716.8,1895.2,722.4,1895.2z M1107.3,1894.2c1.5-0.2,6.9,0.1,12.1,0
			C1116.9,1894.5,1111.2,1894.3,1107.3,1894.2z M897.5,1893.1c3.6-0.2,13.5,0,19.6-0.1C915.7,1893.3,901.2,1893.2,897.5,1893.1z
			 M843.1,1893.2c2.6-0.3,12.8-0.2,19.6-0.3C860.1,1893.2,848,1893,843.1,1893.2z M1271.9,1908.7c-3.8,0-8-0.1-12.1,0.2
			c-6.7-0.2-15.8-0.3-25.7-0.4c-1.2,0-1.5,0.1-3,0.1c0.9,0.2-2.4,0.6,3,0.5c-4.7,0.5-15.4,0-15.1-0.3c-4.6-0.1-5.5,0.1-9.1,0.1
			c6.3,0.3,9.1,0.7,18.1,0.5c-0.1,0.4-0.7,0.5,1.5,1c-8.4,0-8.2,0.2-12.1,0.6c-3.5-0.1-7.4-0.2-12.1-0.2c-2,0-2.4,0.2-4.5,0.2
			c-1.1,0.3,4.1,0.2,3,0.4c-74.6-0.5-150.6-0.1-228-0.4c-19.8,0.7-29.8,0-52.8,0.2c2.6,0.3,14.8,0.1,19.6,0.3
			c-55.9,0.2-115.4-0.1-160,0.3c-22-0.4-53.2-0.4-78.5-0.4c-5.3,0,0.1,0.2-3,0.3c-17.8,0-18.3-0.1-34.7-0.1
			c2.1-0.6,15.3-0.5,27.2-0.5c-12.1-0.1-37.1-0.3-37.7,0c-27.4,0-48.3,0.1-78.5,0.1c-3.4,0.2-9.9,0.1-10.6,0.4
			c-11.1,0-22.8,0-30.2,0.2c2.1,0.2,10.5,0,15.1,0.1c-8.8,0.4-32.6,0.3-36.2-0.3c-27.6,0-56.7-0.1-78.5,0.3
			c-22.2-0.9-50.3-0.2-80-0.4c19.5,0.2-11,0.2-13.6,0.3c-16.5,0.1-33.2,0.3-48.3,0.4c-28.5,0.3-51.6,0-71,0.1
			c-47.9,0.3-96.1,0-135.9-0.4c-4.3,0-6.3,0.2-10.6,0.2c0-0.1,1.9-0.1,3-0.1c-12.3-0.5-28.2-1.5-13.6-2.4c-1.3-0.4-7.9-0.7-13.6-1.1
			c9.2-1.2,4.7-2.7,18.1-3.8c-7.9-0.9,0.1-2,0-3c-0.1-1.1-8.1-2.4,7.6-3.1c5.2-3.6,94.5-2.2,140.4-1.9c27-0.5,55.3,0.3,86.1,0.1
			c4.5,0,5.1-0.2,9.1-0.3c43.1,0.3,81.5-0.2,119.3-0.2c-23.5-0.2-34.8-0.1-61.9-0.2c-11.2-0.1,4.9-0.1,9.1-0.1
			c84.9-0.3,193.2-0.4,301.9-0.5c11.4,0,25.8,0.3,31.7-0.1c16.9,0.1,27.4,0.1,42.3,0c0.7-0.1-8.2-0.1-7.5,0
			c12.6-0.6,44.6-0.1,66.4-0.4c-24.7-0.6-83.8-0.1-111.7-0.3c49.7-0.2,92.9,0,138.9-0.4c-0.6,0.2,6.9,0,4.5,0.3
			c25.4-0.1,47.1,0,67.9,0c14.7,0,29.8-0.4,43.8,0c90.3,0.2,166.8,0.2,241.6,0.9c-4.1,0.3-6.8-0.3-12.1,0c4.8,0.1,11.2,0.2,15.1,0.4
			c7.3-0.4,41.8-0.1,46.8,0.8c-11.2-0.1-19.8-0.4-33.2-0.4c2.6,0.2,11.2,0.1,12.1,0.4c-7.1,0.1-20.3-0.1-28.7-0.2
			c-2.1,0-0.1,0.2,1.5,0.2c-19.2,0-40.8-0.7-61.9-0.3c8.6,0.1,21.8-0.1,28.7,0.3c-2.3,0.1-11.6-0.1-18.1,0
			c7.9,0.3,13.2,0.2,22.6,0.3c-6.9-0.4,6.1,0,12.1-0.1c-15.2,0.3-32.6,0.4-22.6,1.1c21.7,0.1,24.8,0.1,39.3,0.1
			c-2.7-0.2-5.6,0-3-0.4c-2.5,0-5,0-7.5,0c8.1,0,13.1-0.5,24.2-0.5c-0.5,0.1-3.8,0.1-6,0.1c1,0.3,5.1,0.4,10.6,0.4
			c-0.3,0.2-7.2,0.1-6,0.4c1,0.3,3.2-0.1,6,0c0.7,0.3-6.9,0.1-7.6,0.3c6.4,0,13.8,0.2,25.7,0.2c-0.7,0.1-1.9,0.2-4.5,0.2
			c3.7,0.2,12.1,0,16.6,0c-0.8,0.4,7.2,0.3,7.5,0.7c-9.2-0.4-12,0.2-15.1-0.3c-6.3,0.6-21.3,0.2-34.7,0.4c7.1,0.1,17.3,0.1,25.7,0.2
			c-1,0.1-3.2,0.2-6,0.2c0.6,0.1,5.9,0.3,4.5,0c4.6,0.2-4.4,0.3-6,0.4c2,0,4,0,3,0.4c-6.8,0.1-20-0.5-28.7,0c-2-0.1-4.6-0.1-6-0.3
			c-5.3,0.1-7.9,0.4-16.6,0.3c9.1-0.2-3.5-0.2-4.5-0.5c-0.3,0.3-19.3,0.1-27.2,0.3c7.5,0.2,24.5,0.1,30.2,0.1
			c-1.1,0.1-2.8,0.1-4.5,0.2c14,0.1,30,0.3,43.8-0.1c0.5,0.3,6.9,0.2,10.6,0.4c5.5,0,4.4-0.4,10.6-0.4c0.9,0.6-2.2,0.7-12.1,0.8
			c11.2,0.1,29.2-0.2,33.2,0.9c-10-0.6-24-0.7-40.8-0.6c6,0.2,21.4-0.1,25.7,0.3c-4.4,0-4.3,0.2-7.6,0.3c3.7,0.3,1.5,0.1,7.6,0.4
			c-3,0.2-7.6-0.2-13.6-0.1c-2.4,0.3,9.8,0.2,1.5,0.3c-0.7,0.1,5.6,0.3,6,0.1c-0.4,0.1-5.9,0.5-4.5,0.8c-8.2,0.1-4.4-0.1-13.6,0.1
			c3.4,0.5,14-0.2,18.1,0.1c-1.5-0.2,6.6-0.6-1.5-0.6c4-0.4,8.2,0,12.1,0.3c-1.3,0.3-4.9-0.1-7.5,0c-3.8,0.7,18,1.6,6,1.9
			c-1,0.2,3.1,0.2,4.5,0.3c-7.5,0.4-16.5,0.1-25.7,0.4c3.1,0.1,16.5,0.1,19.6,0c4.9,0.1-1.4,0.3-4.5,0.2c2.9,0.6,23.9,0.1,28.7,0.2
			c1.4,0.2-11.4,0.4-13.6,0.7c-1.8-0.1-2.7-0.3-7.6-0.2c5.7-0.2-1.7-0.1,1.5-0.4c-6,0.4-11.2,0.3-18.1,0.7c7,0.4,16.3,0.2,25.7,0.7
			c8-0.2,11.8-0.2,19.6,0C1276.4,1908.2,1267,1908.4,1271.9,1908.7z M735.9,1911c-2.6,0.3-15.5-0.1-18.1,0.2
			c55.8,0.1,121.7,0.6,170.6,0c-6.1-0.1-16.1,0.1-19.6-0.1c1.8,0,3.4-0.1,4.5-0.2c-19.6,0.2-65.6-0.1-92.1,0.2c1.8,0,4.3,0,4.5-0.1
			C771.9,1911,737.6,1910.7,735.9,1911z M1244.7,1905.2c0-0.2,0-0.4,0-0.5c-23.8-0.1-54.7-0.3-80,0c23.1,0,40.4,0.1,55.9,0.3
			c-1.2,0.1,2.6,0.1-3,0.3C1230.1,1905.3,1233.2,1905,1244.7,1905.2z M1207,1900.3c-8.9,0-25.3-0.4-36.2-0.1
			c5.2,0,20.1-0.1,12.1,0.2C1189.2,1900.6,1200.6,1900.4,1207,1900.3z M283,1897.1c4.4,0.1,1.7,0.1,1.5,0.4
			c9.6,0.1,18.2,0.2,30.2,0.2C310.2,1897.1,294.9,1896.6,283,1897.1z M382.7,1897.3c-0.2-0.4-21.1-0.4-21.1,0
			C369.4,1897.4,373,1897.3,382.7,1897.3z M692.2,1896.8c-0.1,0.1-1.9,0.1-1.5-0.1c-5.1,0.3-12.8,0-19.6,0.2c3.2,0.1-2.2,0-3,0.2
			c-1.9-0.1-3.1,0-7.6,0c-12.2,0.2,28.8,0.1,31.7,0c0,0,1.2,0.1,1.5,0C689,1897.1,697.5,1896.8,692.2,1896.8z M775.2,1896.7
			c16.4-0.1-24.6-0.2-4.5-0.1c-21.5-0.1-57.3,0-75.5,0.3C723.1,1896.8,747.9,1896.9,775.2,1896.7z M743.5,1896.1
			c-7.3-0.2-8.5,0.1-15.1-0.2c-69.7,0.6-121,0-184.2,0.1C602.8,1897,677.9,1896.3,743.5,1896.1z M652.9,1896
			c4.6-0.1,13,0.1,15.1-0.1C663.4,1896,655,1895.8,652.9,1896z M846.1,1894.8c2.4,0.3,10.9,0.3,16.6,0.2
			C857.2,1894.9,853.8,1894.8,846.1,1894.8z M630.3,1911.5c-9,0.3-18.6,0.1-27.2,0.1c-6.4-0.1,13.3-0.1,3-0.2
			C610.4,1911.3,623.2,1911.4,630.3,1911.5z M1220.6,1911c3.3,0.2,2.2,0.2,4.5,0.5c-2.8-0.1-7.1-0.1-10.6-0.2
			C1216.9,1911.3,1219.8,1911.2,1220.6,1911C1222.3,1911,1221.4,1911,1220.6,1911z"/>
	</g>
</g>
</svg>
