<svg width="1351" height="1363" viewBox="0 0 1351 1363" fill="none" xmlns="http://www.w3.org/2000/svg">
<path d="M126.4 488.9C126.3 480.5 126.5 468.2 126.3 462.3C126.1 472.9 126.2 480.9 126.4 488.9ZM126.4 945.6C126.1 943.5 126.3 931.6 126.2 924.9C126.5 926.9 126.3 938.9 126.4 945.6ZM126.2 613C126.4 616 126.3 625.8 126.2 629.2C125.9 625.7 126.2 617.5 126.2 613ZM125.9 283.4C126 284.5 126 295.6 125.9 296.7C126 289.9 125.8 287.8 125.9 283.4ZM125.9 386.9C125.7 385.8 125.9 378.6 125.8 375.1C125.7 375.3 125.7 377.8 125.7 379.5C125.5 378.9 125.7 372.2 125.6 369.2C125.7 370.3 125.7 371.9 125.8 373.6C126 369.1 125.8 358.4 125.9 351.4C126.1 360.7 126 377.2 125.9 386.9ZM125.3 595.3C125.5 597.3 125.3 605.6 125.4 610.1C125.2 608 125.4 599.8 125.3 595.3ZM125.1 114.9C125 119.6 124.8 120.9 124.7 126.7C124.5 124.2 124.7 114.3 125.1 114.9ZM109.4 624.8C109.6 627.8 109.4 637.1 109.5 642.5C109.3 639.6 109.5 630.3 109.4 624.8ZM108.5 248C108.3 246.5 108.6 241.2 108.5 236.2C108.8 238.6 108.6 244.2 108.5 248ZM107.3 453.4C107.1 449.9 107.3 440.1 107.2 434.2C107.6 435.6 107.4 449.7 107.3 453.4ZM107.4 506.6C107.1 504 107.2 494.1 107.1 487.4C107.5 490 107.2 501.8 107.4 506.6ZM122.9 86.9C122.9 90.6 122.8 94.8 123.1 98.7C122.9 105.3 122.8 114.2 122.7 123.8C122.7 125 122.8 125.3 122.8 126.8C123 125.9 123.4 129.2 123.3 123.8C123.8 128.4 123.3 138.9 123 138.6C122.9 143.1 123.1 144 123.1 147.5C123.4 141.3 123.8 138.6 123.6 129.8C124 129.9 124.1 130.5 124.6 128.3C124.6 136.5 124.8 136.3 125.2 140.1C125.1 143.6 125 147.4 125 151.9C125 153.8 125.2 154.2 125.2 156.3C125.5 157.4 125.4 152.2 125.6 153.3C125.1 226.3 125.5 300.7 125.2 376.5C125.9 395.8 125.2 405.6 125.4 428.2C125.7 425.6 125.5 413.7 125.7 409C125.9 463.8 125.6 522 126 565.7C125.6 587.3 125.6 617.8 125.6 642.6C125.6 647.7 125.8 642.5 125.9 645.6C125.9 663.1 125.8 663.5 125.8 679.6C125.2 677.5 125.3 664.6 125.3 653C125.2 664.8 125 689.3 125.3 690C125.3 716.9 125.4 737.3 125.4 766.9C125.6 770.2 125.5 776.6 125.8 777.2C125.8 788 125.8 799.5 126 806.8C126.2 804.8 126 796.5 126.1 792C126.5 800.6 126.4 823.9 125.8 827.5C125.8 854.5 125.7 883.1 126.1 904.4C125.2 926.1 125.9 953.7 125.7 982.7C125.9 963.6 125.9 993.5 126 996C126.1 1012.1 126.3 1028.5 126.4 1043.3C126.7 1071.2 126.4 1093.8 126.5 1112.8C126.8 1159.7 126.5 1206.9 126.1 1245.8C126.1 1250 126.3 1252 126.3 1256.1C126.2 1256.1 126.2 1254.3 126.2 1253.1C125.7 1265.2 124.7 1280.7 123.8 1266.4C123.4 1267.7 123.1 1274.1 122.7 1279.7C121.5 1270.6 120 1275.1 118.9 1262C118 1269.8 116.9 1261.9 115.9 1262C114.8 1262.1 113.5 1270 112.8 1254.6C109.2 1249.5 110.6 1162 110.9 1117.1C110.4 1090.7 111.2 1063 111 1032.9C111 1028.5 110.8 1027.9 110.7 1024C111 981.8 110.5 944.2 110.5 907.2C110.3 930.2 110.4 941.2 110.3 967.8C110.2 978.8 110.2 963 110.2 958.9C109.9 875.8 109.8 769.8 109.7 663.3C109.7 652.1 110 638.1 109.6 632.3C109.7 615.8 109.7 605.5 109.6 590.9C109.5 590.2 109.5 599 109.6 598.3C109 586 109.5 554.6 109.2 533.3C108.6 557.5 109.1 615.4 108.9 642.7C108.7 594 108.9 551.8 108.5 506.7C108.7 507.3 108.5 500 108.8 502.3C108.7 477.4 108.8 456.2 108.8 435.8C108.8 421.4 108.4 406.6 108.8 392.9C109 304.5 109 229.6 109.7 156.4C110 160.4 109.4 163.1 109.7 168.2C109.8 163.5 109.9 157.2 110.1 153.4C109.7 146.3 110 112.5 110.9 107.6C110.8 118.6 110.5 126.9 110.5 140.1C110.7 137.5 110.6 129.1 110.9 128.3C111 135.3 110.8 148.1 110.7 156.4C110.7 158.5 110.9 156.5 110.9 154.9C110.9 173.7 110.2 194.8 110.6 215.5C110.7 207.1 110.5 194.2 110.9 187.4C111 189.7 110.8 198.7 110.9 205.1C111.2 197.3 111.1 192.2 111.2 182.9C110.8 189.7 111.2 176.9 111.1 171.1C111.4 186 111.5 203 112.2 193.3C112.3 172.1 112.3 169 112.3 154.9C112.1 157.5 112.3 160.4 111.9 157.9C111.9 160.4 111.9 162.8 111.9 165.3C111.9 157.3 111.4 152.5 111.4 141.7C111.5 142.2 111.5 145.4 111.5 147.6C111.8 146.7 111.9 142.6 111.9 137.3C112.1 137.6 112 144.3 112.3 143.2C112.6 142.2 112.2 140 112.3 137.3C112.6 136.6 112.4 144.1 112.6 144.7C112.6 138.5 112.8 131.2 112.8 119.6C112.9 120.2 113 121.5 113 124C113.2 120.4 113 112.2 113 107.7C113.4 108.5 113.3 100.6 113.7 100.3C113.3 109.4 113.9 112.1 113.4 115.1C114 121.3 113.6 136 113.8 149.1C113.9 142.2 113.9 132.2 114 124C114.1 125 114.2 127.2 114.2 129.9C114.3 129.3 114.5 124.2 114.2 125.5C114.4 121 114.5 129.8 114.6 131.4C114.6 129.4 114.6 127.5 115 128.4C115.1 135.1 114.5 148 115 156.5C114.9 158.5 114.9 161 114.7 162.4C114.8 167.6 115.1 170.1 115 178.6C114.8 169.7 114.8 182 114.5 183C114.8 183.3 114.6 201.9 114.8 209.6C115 202.2 114.9 185.6 114.9 180C115 181.1 115 182.7 115.1 184.4C115.2 170.7 115.4 155 115 141.5C115.3 141 115.2 134.7 115.4 131.2C115.4 125.8 115 126.9 115 120.9C115.6 120 115.7 123.1 115.8 132.7C115.9 121.7 115.6 104.1 116.7 100.2C116.1 110 116 123.7 116.1 140.1C116.3 134.2 116 119.1 116.4 115C116.4 119.3 116.6 119.2 116.7 122.4C117 118.8 116.8 121 117.1 115C117.3 117.9 116.9 122.4 117 128.3C117.3 130.6 117.2 118.7 117.3 126.8C117.4 127.4 117.6 121.3 117.4 120.9C117.5 121.3 117.9 126.6 118.2 125.3C118.3 133.3 118.1 129.6 118.3 138.6C118.8 135.3 118.1 124.9 118.4 120.9C118.2 122.3 117.8 114.4 117.8 122.4C117.4 118.5 117.8 114.4 118.1 110.6C118.4 111.9 118 115.3 118.1 118C118.8 121.7 119.7 100.4 120 112.1C120.2 113.1 120.2 109 120.3 107.7C120.7 115.1 120.4 123.9 120.7 132.8C120.8 129.8 120.8 116.6 120.7 113.6C120.8 108.8 121 115 120.9 118C121.5 115.1 121 94.6 121.1 89.9C121.3 88.5 121.5 101.1 121.8 103.2C121.7 105 121.5 105.9 121.6 110.6C121.4 105.1 121.5 112.3 121.2 109.1C121.6 115 121.5 120.1 121.9 126.8C122.3 120 122.1 110.8 122.6 101.7C122.4 93.9 122.4 90.1 122.6 82.5C122.5 82.4 122.7 91.6 122.9 86.9ZM125.3 611.5C125.6 614 125.2 626.7 125.5 629.2C125.6 574.5 126.1 510.1 125.5 462.2C125.4 468.1 125.6 477.9 125.4 481.4C125.4 479.7 125.3 478 125.2 477C125.4 496.2 125.1 541.3 125.4 567.2C125.4 565.5 125.4 563 125.3 562.8C125.3 576.3 124.9 610 125.3 611.5ZM119.4 113.5C119.2 113.5 119 113.5 118.9 113.5C118.8 136.8 118.6 167 118.9 191.8C118.9 169.2 119 152.3 119.2 137.1C119.3 138.3 119.3 134.5 119.5 140.1C119.6 127.8 119.2 124.7 119.4 113.5ZM114.6 150.4C114.6 159.1 114.2 175.2 114.5 185.9C114.5 180.9 114.4 166.2 114.7 174.1C114.9 167.8 114.7 156.6 114.6 150.4ZM111.4 1054.9C111.5 1050.6 111.5 1053.2 111.8 1053.4C111.9 1044 112 1035.5 112 1023.8C111.4 1028.3 110.9 1043.3 111.4 1054.9ZM111.5 957.4C111.1 957.6 111.1 978 111.5 978.1C111.7 970.4 111.5 966.9 111.5 957.4ZM111.1 654.4C111.2 654.5 111.2 656.3 111 655.9C111.3 660.9 111 668.4 111.2 675.1C111.3 672 111.2 677.2 111.4 678.1C111.3 680 111.4 681.2 111.4 685.5C111.6 697.5 111.5 657.3 111.4 654.5C111.4 654.5 111.5 653.3 111.4 653C111.4 657.5 111.1 649.2 111.1 654.4ZM111 573.1C110.9 557 110.8 597.2 110.9 577.5C110.8 598.6 110.9 633.6 111.2 651.4C111.1 624.1 111.2 599.9 111 573.1ZM110.4 604.1C110.2 611.3 110.5 612.4 110.2 618.9C110.8 687.1 110.2 737.3 110.3 799.2C111.3 741.9 110.6 668.4 110.4 604.1ZM110.3 692.8C110.2 688.3 110.4 680.1 110.2 678C110.3 682.5 110.1 690.8 110.3 692.8ZM109.1 503.7C109.4 501.3 109.4 493 109.3 487.4C109.2 492.9 109 496.2 109.1 503.7ZM125.7 715C126 723.8 125.8 733.2 125.8 741.6C125.7 747.8 125.7 728.5 125.6 738.6C125.6 734.4 125.7 721.9 125.7 715ZM125.3 137.1C125.5 133.9 125.5 135 125.8 132.7C125.7 135.5 125.7 139.7 125.6 143C125.5 140.7 125.4 137.9 125.3 137.1C125.3 136.3 125.2 135.4 125.3 137.1Z" fill="#FF0000"/>
<path d="M1265.5 478.7C1265.4 470 1265.6 457.3 1265.4 451.2C1265.2 462.2 1265.3 470.5 1265.5 478.7ZM1265.5 951.6C1265.2 949.4 1265.4 937.1 1265.3 930.2C1265.6 932.3 1265.4 944.7 1265.5 951.6ZM1265.3 607.3C1265.5 610.4 1265.4 620.5 1265.3 624.1C1265 620.4 1265.3 611.9 1265.3 607.3ZM1265 266C1265.1 267.2 1265.1 278.6 1265 279.8C1265.1 272.7 1264.9 270.5 1265 266ZM1265 373.1C1264.8 372 1265 364.5 1264.9 360.9C1264.8 361.2 1264.8 363.7 1264.8 365.5C1264.6 364.8 1264.8 358 1264.7 354.8C1264.8 355.9 1264.8 357.6 1264.9 359.4C1265.1 354.8 1264.9 343.6 1265 336.4C1265.2 346 1265.1 363.2 1265 373.1ZM1264.4 588.9C1264.6 591 1264.4 599.5 1264.5 604.2C1264.3 602.1 1264.5 593.6 1264.4 588.9ZM1264.2 91.6001C1264.1 96.5001 1263.9 97.8001 1263.8 103.8C1263.6 101.1 1263.8 90.9001 1264.2 91.6001ZM1248.5 619.5C1248.7 622.6 1248.5 632.2 1248.6 637.9C1248.4 634.8 1248.6 625.2 1248.5 619.5ZM1247.6 229.3C1247.4 227.7 1247.7 222.3 1247.6 217.1C1247.9 219.6 1247.7 225.4 1247.6 229.3ZM1246.4 442C1246.2 438.4 1246.4 428.3 1246.3 422.1C1246.7 423.6 1246.5 438.2 1246.4 442ZM1246.5 497.1C1246.2 494.4 1246.3 484.1 1246.2 477.2C1246.6 479.9 1246.3 492.2 1246.5 497.1ZM1262 62.5001C1262 66.4001 1261.9 70.6 1262.2 74.7C1262 81.5 1261.9 90.8001 1261.8 100.7C1261.8 101.9 1261.9 102.2 1261.9 103.8C1262.1 102.9 1262.5 106.3 1262.4 100.7C1262.9 105.5 1262.4 116.4 1262.1 116C1262 120.7 1262.2 121.6 1262.2 125.2C1262.5 118.8 1262.9 116 1262.7 106.8C1263.1 106.9 1263.2 107.5 1263.7 105.3C1263.7 113.8 1263.9 113.6 1264.3 117.5C1264.2 121.1 1264.1 125 1264.1 129.7C1264.1 131.7 1264.3 132.1 1264.3 134.3C1264.6 135.4 1264.5 130.1 1264.7 131.2C1264.2 206.8 1264.6 283.9 1264.3 362.3C1265 382.3 1264.3 392.5 1264.5 415.9C1264.8 413.2 1264.6 400.9 1264.8 396C1265 452.7 1264.7 513 1265.1 558.2C1264.7 580.5 1264.7 612.2 1264.7 637.8C1264.7 643.1 1264.9 637.7 1265 640.9C1265 659 1264.9 659.4 1264.9 676.1C1264.3 674 1264.4 660.6 1264.4 648.6C1264.3 660.9 1264.1 686.2 1264.4 686.9C1264.4 714.7 1264.5 735.8 1264.5 766.5C1264.7 769.9 1264.6 776.5 1264.9 777.2C1264.9 788.4 1264.9 800.3 1265.1 807.8C1265.3 805.7 1265.1 797.1 1265.2 792.5C1265.6 801.4 1265.5 825.6 1264.9 829.2C1264.9 857.2 1264.8 886.7 1265.2 908.8C1264.3 931.3 1265 959.8 1264.8 989.9C1265 970.1 1265 1001 1265.1 1003.7C1265.2 1020.4 1265.4 1037.3 1265.5 1052.7C1265.8 1081.6 1265.5 1105 1265.6 1124.6C1265.9 1173.1 1265.6 1222.1 1265.2 1262.3C1265.2 1266.6 1265.4 1268.7 1265.4 1273C1265.3 1273 1265.3 1271.1 1265.3 1269.9C1264.8 1282.4 1263.8 1298.5 1262.9 1283.7C1262.5 1285 1262.2 1291.7 1261.8 1297.5C1260.6 1288.1 1259.1 1292.8 1258 1279.1C1257.1 1287.1 1256 1279 1255 1279.1C1253.9 1279.2 1252.6 1287.3 1251.9 1271.4C1248.3 1266.1 1249.7 1175.6 1250 1129.1C1249.5 1101.7 1250.3 1073.1 1250.1 1041.9C1250.1 1037.3 1249.9 1036.7 1249.8 1032.7C1250.1 989 1249.6 950 1249.6 911.8C1249.4 935.6 1249.5 947 1249.4 974.5C1249.3 985.9 1249.3 969.5 1249.3 965.3C1249 879.3 1248.9 769.5 1248.8 659.2C1248.8 647.6 1249.1 633.1 1248.7 627.1C1248.8 610 1248.8 599.4 1248.7 584.2C1248.6 583.5 1248.6 592.5 1248.7 591.9C1248.1 579.1 1248.6 546.7 1248.3 524.6C1247.7 549.7 1248.2 609.6 1248 637.8C1247.8 587.4 1248 543.7 1247.6 497C1247.8 497.6 1247.6 490 1247.9 492.4C1247.8 466.7 1247.9 444.7 1247.9 423.5C1247.9 408.6 1247.5 393.3 1247.9 379.1C1248.1 287.6 1248.1 210 1248.8 134.2C1249.1 138.4 1248.5 141.1 1248.8 146.4C1248.9 141.6 1249 135 1249.2 131.1C1248.8 123.7 1249.1 88.7 1250 83.7C1249.9 95.1 1249.6 103.7 1249.6 117.4C1249.8 114.7 1249.7 106 1250 105.2C1250.1 112.4 1249.9 125.7 1249.8 134.3C1249.8 136.4 1250 134.4 1250 132.8C1250 152.2 1249.3 174.1 1249.7 195.5C1249.8 186.8 1249.6 173.4 1250 166.4C1250.1 168.7 1249.9 178.1 1250 184.8C1250.3 176.8 1250.2 171.4 1250.3 161.8C1249.9 168.8 1250.3 155.6 1250.2 149.6C1250.5 165 1250.6 182.7 1251.3 172.6C1251.4 150.6 1251.4 147.5 1251.4 132.8C1251.2 135.5 1251.4 138.5 1251 135.9C1251 138.4 1251 141 1251 143.6C1251 135.4 1250.5 130.3 1250.5 119.1C1250.6 119.6 1250.6 122.9 1250.6 125.2C1250.9 124.2 1251 120 1251 114.5C1251.2 114.8 1251.1 121.8 1251.4 120.6C1251.7 119.6 1251.3 117.3 1251.4 114.5C1251.7 113.8 1251.5 121.5 1251.7 122.2C1251.7 115.7 1251.9 108.2 1251.9 96.2001C1252 96.9001 1252.1 98.2001 1252.1 100.8C1252.3 97.1001 1252.1 88.6001 1252.1 84.0001C1252.5 84.8001 1252.4 76.7001 1252.8 76.4001C1252.4 85.8001 1253 88.6001 1252.5 91.7001C1253.1 98.1001 1252.7 113.3 1252.9 126.9C1253 119.7 1253 109.4 1253.1 100.9C1253.2 101.9 1253.3 104.2 1253.3 107C1253.4 106.4 1253.6 101.1 1253.3 102.4C1253.5 97.7001 1253.6 106.9 1253.7 108.5C1253.7 106.5 1253.7 104.4 1254.1 105.4C1254.2 112.3 1253.6 125.7 1254.1 134.5C1254 136.5 1254 139.1 1253.8 140.6C1253.9 146 1254.2 148.6 1254.1 157.4C1253.9 148.2 1253.9 160.9 1253.6 162C1253.9 162.3 1253.7 181.6 1253.9 189.5C1254.1 181.9 1254 164.6 1254 158.9C1254.1 160 1254.1 161.7 1254.2 163.5C1254.3 149.4 1254.5 133 1254.1 119.1C1254.4 118.6 1254.3 112.1 1254.5 108.4C1254.5 102.8 1254.1 104 1254.1 97.7001C1254.7 96.7001 1254.8 99.9001 1254.9 109.9C1255 98.5001 1254.7 80.3 1255.8 76.2C1255.2 86.3 1255.1 100.5 1255.2 117.5C1255.4 111.4 1255.1 95.8001 1255.5 91.5001C1255.5 95.9001 1255.7 95.8001 1255.8 99.2001C1256.1 95.5001 1255.9 97.7001 1256.2 91.5001C1256.4 94.5001 1256 99.2001 1256.1 105.3C1256.4 107.7 1256.3 95.4001 1256.4 103.8C1256.5 104.5 1256.7 98.1001 1256.5 97.7001C1256.6 98.2001 1257 103.6 1257.3 102.3C1257.4 110.6 1257.2 106.7 1257.4 116.1C1257.9 112.6 1257.2 101.9 1257.5 97.7001C1257.3 99.2001 1256.9 91.0001 1256.9 99.2001C1256.5 95.2001 1256.9 90.9001 1257.2 87.0001C1257.5 88.3001 1257.1 91.9001 1257.2 94.6001C1257.9 98.5001 1258.8 76.3001 1259.1 88.5001C1259.3 89.5001 1259.3 85.3001 1259.4 83.9001C1259.8 91.5001 1259.5 100.7 1259.8 109.9C1259.9 106.8 1259.9 93.1001 1259.8 90.0001C1259.9 85.1001 1260.1 91.5001 1260 94.6001C1260.6 91.6001 1260.1 70.4001 1260.2 65.5001C1260.4 64.1001 1260.6 77.1001 1260.9 79.3001C1260.8 81.1001 1260.6 82.1001 1260.7 87.0001C1260.5 81.3001 1260.6 88.8001 1260.3 85.5001C1260.7 91.6001 1260.6 96.9001 1261 103.9C1261.4 96.8001 1261.2 87.4001 1261.7 77.9001C1261.5 69.8001 1261.5 65.9001 1261.7 58.0001C1261.6 57.9001 1261.8 67.4001 1262 62.5001ZM1264.4 605.7C1264.7 608.3 1264.3 621.4 1264.6 624.1C1264.7 567.5 1265.2 500.7 1264.6 451.2C1264.5 457.4 1264.7 467.5 1264.5 471.1C1264.5 469.3 1264.4 467.6 1264.3 466.5C1264.5 486.4 1264.2 533 1264.5 559.9C1264.5 558.1 1264.5 555.6 1264.4 555.3C1264.4 569.3 1264 604.1 1264.4 605.7ZM1258.5 90.0001C1258.3 90.0001 1258.1 90.0001 1258 90.0001C1257.9 114.1 1257.7 145.4 1258 171.1C1258 147.7 1258.1 130.2 1258.3 114.5C1258.4 115.7 1258.4 111.8 1258.6 117.6C1258.7 104.9 1258.3 101.7 1258.5 90.0001ZM1253.7 128.3C1253.7 137.3 1253.3 154 1253.6 165C1253.6 159.8 1253.5 144.6 1253.8 152.8C1254 146.3 1253.8 134.7 1253.7 128.3ZM1250.5 1064.8C1250.6 1060.3 1250.6 1063.1 1250.9 1063.3C1251 1053.6 1251.1 1044.8 1251.1 1032.7C1250.5 1037.3 1250 1052.8 1250.5 1064.8ZM1250.6 963.8C1250.2 964 1250.2 985.2 1250.6 985.2C1250.8 977.3 1250.6 973.7 1250.6 963.8ZM1250.2 650.1C1250.3 650.2 1250.3 652.1 1250.1 651.6C1250.4 656.8 1250.1 664.5 1250.3 671.5C1250.4 668.3 1250.3 673.7 1250.5 674.6C1250.4 676.6 1250.5 677.8 1250.5 682.3C1250.7 694.7 1250.6 653.2 1250.5 650.2C1250.5 650.2 1250.6 649 1250.5 648.7C1250.5 653.4 1250.2 644.7 1250.2 650.1ZM1250.1 566C1250 549.3 1249.9 591 1250 570.6C1249.9 592.4 1250 628.7 1250.3 647.1C1250.2 618.8 1250.3 593.6 1250.1 566ZM1249.5 598.1C1249.3 605.5 1249.6 606.7 1249.3 613.4C1249.9 684 1249.3 736 1249.4 800.1C1250.4 740.7 1249.7 664.6 1249.5 598.1ZM1249.4 689.9C1249.3 685.3 1249.5 676.7 1249.3 674.6C1249.4 679.3 1249.2 687.8 1249.4 689.9ZM1248.2 494C1248.5 491.5 1248.5 482.9 1248.4 477.2C1248.3 482.9 1248.1 486.3 1248.2 494ZM1264.8 712.9C1265.1 722.1 1264.9 731.8 1264.9 740.4C1264.8 746.9 1264.8 726.9 1264.7 737.3C1264.7 733 1264.8 720.1 1264.8 712.9ZM1264.4 114.5C1264.6 111.2 1264.6 112.3 1264.9 109.9C1264.8 112.8 1264.8 117.1 1264.7 120.6C1264.6 118.2 1264.5 115.3 1264.4 114.5C1264.4 113.7 1264.3 112.8 1264.4 114.5Z" fill="#FF0000"/>
<path d="M865.3 124.1C873.8 124 886.3 124.2 892.4 124C881.5 123.8 873.4 123.9 865.3 124.1ZM400.6 124.1C402.7 123.8 414.9 124 421.7 123.9C419.5 124.2 407.4 124 400.6 124.1ZM739 123.9C735.9 124.1 726 124 722.5 123.9C726.1 123.6 734.4 123.9 739 123.9ZM1074.4 123.6C1073.3 123.7 1062 123.7 1060.9 123.6C1067.8 123.7 1069.9 123.5 1074.4 123.6ZM969.1 123.6C970.2 123.4 977.5 123.6 981.1 123.5C980.8 123.4 978.4 123.4 976.6 123.4C977.2 123.2 984 123.4 987.1 123.3C986 123.4 984.4 123.4 982.6 123.5C987.1 123.7 998.1 123.5 1005.2 123.6C995.8 123.8 978.9 123.7 969.1 123.6ZM757 123C754.9 123.2 746.5 123 742 123.1C744.1 122.9 752.5 123.1 757 123ZM1245.8 122.8C1241 122.7 1239.7 122.5 1233.8 122.4C1236.4 122.2 1246.5 122.4 1245.8 122.8ZM726.9 107.1C723.8 107.3 714.4 107.1 708.8 107.2C712 107 721.4 107.2 726.9 107.1ZM1110.5 106.2C1112 106 1117.4 106.3 1122.5 106.2C1120 106.5 1114.3 106.3 1110.5 106.2ZM901.4 105C905 104.8 914.9 105 920.9 104.9C919.5 105.2 905.1 105.1 901.4 105ZM847.3 105.1C849.9 104.8 860 104.9 866.9 104.8C864.2 105.2 852.1 104.9 847.3 105.1ZM1274.4 120.6C1270.6 120.6 1266.4 120.5 1262.4 120.8C1255.7 120.6 1246.6 120.5 1236.8 120.4C1235.6 120.4 1235.3 120.5 1233.8 120.5C1234.7 120.7 1231.4 121.1 1236.8 121C1232.1 121.5 1221.4 121 1221.8 120.7C1217.2 120.6 1216.3 120.8 1212.8 120.8C1219.1 121.1 1221.8 121.5 1230.8 121.3C1230.7 121.7 1230.1 121.8 1232.3 122.3C1224 122.3 1224.1 122.5 1220.3 122.9C1216.8 122.8 1212.9 122.7 1208.3 122.7C1206.3 122.7 1205.9 122.9 1203.8 122.9C1202.7 123.2 1207.9 123.1 1206.8 123.3C1132.5 122.8 1056.8 123.2 979.7 122.9C960 123.6 950 122.9 927.1 123.1C929.7 123.4 941.8 123.2 946.6 123.4C890.9 123.6 831.6 123.3 787.2 123.7C765.2 123.3 734.2 123.3 709 123.3C703.8 123.3 709.1 123.5 706 123.6C688.2 123.6 687.8 123.5 671.4 123.5C673.5 122.9 686.7 123 698.5 123C686.5 122.9 661.5 122.7 660.9 123C633.6 123 612.8 123.1 582.7 123.1C579.4 123.3 572.8 123.2 572.2 123.5C561.2 123.5 549.5 123.5 542.1 123.7C544.2 123.9 552.6 123.7 557.1 123.8C548.3 124.2 524.6 124.1 521 123.5C493.5 123.5 464.5 123.4 442.8 123.8C420.7 122.9 392.7 123.6 363.1 123.4C382.6 123.6 352.2 123.6 349.6 123.7C333.2 123.8 316.6 124 301.5 124.1C273.1 124.4 250.1 124.1 230.8 124.2C183.1 124.5 135 124.2 95.4004 123.8C91.1004 123.8 89.1004 124 84.9004 124C84.9004 123.9 86.8004 123.9 87.9004 123.9C75.6004 123.4 59.8004 122.4 74.4004 121.5C73.1004 121.1 66.6004 120.8 60.9004 120.4C70.1004 119.2 65.6004 117.7 79.0004 116.6C71.1004 115.7 79.1004 114.6 79.0004 113.6C78.9004 112.5 70.9004 111.2 86.5004 110.5C91.7004 106.9 180.7 108.3 226.4 108.6C253.3 108.1 281.5 108.9 312.1 108.7C316.6 108.7 317.2 108.5 321.1 108.4C364.1 108.7 402.3 108.2 439.9 108.2C416.5 108 405.3 108.1 378.2 108C367 107.9 383.1 107.9 387.2 107.9C471.7 107.6 579.6 107.5 688 107.4C699.4 107.4 713.7 107.7 719.6 107.3C736.4 107.4 746.9 107.4 761.7 107.3C762.4 107.2 753.5 107.2 754.2 107.3C766.7 106.7 798.7 107.2 820.4 106.9C795.7 106.3 736.9 106.8 709.1 106.6C758.6 106.4 801.6 106.6 847.5 106.2C846.9 106.4 854.4 106.2 852 106.5C877.3 106.4 898.9 106.5 919.7 106.5C934.4 106.5 949.4 106.1 963.3 106.5C1053.2 106.7 1129.5 106.7 1203.9 107.4C1199.8 107.7 1197.1 107.1 1191.9 107.4C1196.6 107.5 1203.1 107.6 1206.9 107.8C1214.2 107.4 1248.5 107.7 1253.5 108.6C1242.3 108.5 1233.8 108.2 1220.4 108.2C1223 108.4 1231.6 108.3 1232.4 108.6C1225.3 108.7 1212.2 108.5 1203.8 108.4C1201.7 108.4 1203.7 108.6 1205.3 108.6C1186.2 108.6 1164.7 107.9 1143.6 108.3C1152.2 108.4 1165.3 108.2 1172.2 108.6C1169.9 108.7 1160.7 108.5 1154.1 108.6C1162 108.9 1167.3 108.8 1176.7 108.9C1169.8 108.5 1182.8 108.9 1188.7 108.8C1173.6 109.1 1156.2 109.2 1166.1 109.9C1187.7 110 1190.8 110 1205.2 110C1202.5 109.8 1199.6 110 1202.2 109.6C1199.7 109.6 1197.2 109.6 1194.7 109.6C1202.8 109.6 1207.7 109.1 1218.8 109.1C1218.3 109.2 1215 109.2 1212.8 109.2C1213.7 109.5 1217.9 109.6 1223.3 109.6C1223 109.8 1216.1 109.7 1217.3 110C1218.3 110.3 1220.5 109.9 1223.3 110C1224 110.3 1216.4 110.1 1215.8 110.3C1222.2 110.3 1229.5 110.5 1241.4 110.5C1240.7 110.6 1239.5 110.7 1236.9 110.7C1240.6 110.9 1248.9 110.7 1253.4 110.7C1252.6 111.1 1260.6 111 1260.9 111.4C1251.7 111 1248.9 111.6 1245.9 111.1C1239.6 111.7 1224.7 111.3 1211.3 111.5C1218.3 111.6 1228.5 111.6 1236.9 111.7C1235.9 111.8 1233.7 111.9 1230.9 111.9C1231.5 112 1236.7 112.2 1235.4 111.9C1240 112.1 1231 112.2 1229.4 112.3C1231.4 112.3 1233.4 112.3 1232.4 112.7C1225.6 112.8 1212.5 112.2 1203.8 112.7C1201.8 112.6 1199.3 112.6 1197.8 112.4C1192.5 112.5 1190 112.8 1181.3 112.7C1190.4 112.5 1177.8 112.5 1176.8 112.2C1176.5 112.5 1157.5 112.3 1149.7 112.5C1157.2 112.7 1174.1 112.6 1179.8 112.6C1178.7 112.7 1177.1 112.7 1175.3 112.8C1189.2 112.9 1205.2 113.1 1218.9 112.7C1219.4 113 1225.8 112.9 1229.4 113.1C1234.9 113.1 1233.7 112.7 1239.9 112.7C1240.8 113.3 1237.7 113.4 1227.9 113.5C1239.1 113.6 1257 113.3 1261 114.4C1251 113.8 1237.1 113.7 1220.4 113.8C1226.4 114 1241.7 113.7 1246 114.1C1241.6 114.1 1241.8 114.3 1238.5 114.4C1242.2 114.7 1240 114.5 1246 114.8C1243.1 115 1238.5 114.6 1232.5 114.7C1230.1 115 1242.2 114.9 1234 115C1233.3 115.1 1239.6 115.3 1240 115.1C1239.6 115.2 1234.2 115.6 1235.5 115.9C1227.4 116 1231.2 115.8 1222 116C1225.4 116.5 1236 115.8 1240.1 116.1C1238.7 115.9 1246.7 115.5 1238.6 115.5C1242.5 115.1 1246.8 115.5 1250.6 115.8C1249.3 116.1 1245.8 115.7 1243.1 115.8C1239.3 116.5 1261 117.4 1249.1 117.7C1248.1 117.9 1252.2 117.9 1253.6 118C1246.1 118.4 1237.1 118.1 1228 118.4C1231.1 118.5 1244.5 118.5 1247.5 118.4C1252.3 118.5 1246.1 118.7 1243 118.6C1245.9 119.2 1266.8 118.7 1271.6 118.8C1273 119 1260.2 119.2 1258.1 119.5C1256.3 119.4 1255.4 119.2 1250.6 119.3C1256.2 119.1 1248.9 119.2 1252.1 118.9C1246.1 119.3 1240.9 119.2 1234.1 119.6C1241.1 120 1250.3 119.8 1259.7 120.3C1267.6 120.1 1271.5 120.1 1279.2 120.3C1278.9 120.2 1269.5 120.4 1274.4 120.6ZM740.5 123C737.9 123.3 725 122.9 722.5 123.2C778.1 123.3 843.7 123.8 892.4 123.2C886.4 123.1 876.4 123.3 872.8 123.1C874.6 123.1 876.2 123 877.3 122.9C857.7 123.1 811.9 122.8 785.6 123.1C787.4 123.1 789.9 123.1 790.1 123C776.3 123 742.1 122.6 740.5 123ZM1247.3 117.1C1247.3 116.9 1247.3 116.7 1247.3 116.6C1223.6 116.5 1192.8 116.3 1167.6 116.6C1190.6 116.6 1207.8 116.7 1223.3 116.9C1222.1 117 1225.9 117 1220.3 117.2C1232.7 117.3 1235.9 116.9 1247.3 117.1ZM1209.7 112.3C1200.8 112.3 1184.4 111.9 1173.6 112.2C1178.7 112.2 1193.6 112.1 1185.6 112.4C1192 112.6 1203.4 112.4 1209.7 112.3ZM289.3 109.1C293.7 109.2 291 109.2 290.8 109.5C300.4 109.6 309 109.7 320.9 109.7C316.3 109.1 301.1 108.6 289.3 109.1ZM388.6 109.2C388.4 108.8 367.6 108.8 367.5 109.2C375.4 109.4 378.9 109.2 388.6 109.2ZM696.9 108.8C696.8 108.9 695 108.9 695.4 108.7C690.3 109 682.7 108.7 675.9 108.9C679.1 109 673.8 108.9 672.9 109.1C671 109 669.8 109.1 665.4 109.1C653.2 109.3 694 109.2 697 109.1C697 109.1 698.2 109.2 698.5 109.1C693.7 109.1 702.2 108.8 696.9 108.8ZM779.6 108.7C796 108.6 755.1 108.5 775.1 108.6C753.7 108.5 718 108.6 699.9 108.9C727.7 108.7 752.4 108.9 779.6 108.7ZM748 108.1C740.7 107.9 739.6 108.2 733 107.9C663.6 108.5 612.5 107.9 549.5 108C607.8 109 682.6 108.3 748 108.1ZM657.8 108C662.4 107.9 670.8 108.1 672.8 107.9C668.2 108 659.9 107.8 657.8 108ZM850.3 106.8C852.7 107.1 861.2 107.1 866.9 107C861.2 106.9 857.9 106.7 850.3 106.8ZM635.2 123.4C626.2 123.7 616.7 123.5 608.1 123.5C601.8 123.4 621.4 123.4 611.1 123.3C615.5 123.2 628.1 123.4 635.2 123.4ZM1223.3 123C1226.5 123.2 1225.5 123.2 1227.8 123.5C1225 123.4 1220.7 123.4 1217.3 123.3C1219.6 123.2 1222.5 123.1 1223.3 123C1224.1 123 1225 122.9 1223.3 123Z" fill="#FF0000"/>
<path d="M889.9 1259.2C898.5 1259.1 911 1259.3 917.1 1259.1C906.1 1259 897.9 1259 889.9 1259.2ZM423.4 1259.2C425.5 1258.9 437.7 1259.1 444.5 1259C442.4 1259.3 430.2 1259.1 423.4 1259.2ZM763 1259C759.9 1259.2 750 1259.1 746.4 1259C750.1 1258.8 758.5 1259 763 1259ZM1099.7 1258.7C1098.5 1258.8 1087.3 1258.8 1086.1 1258.7C1093.1 1258.8 1095.2 1258.6 1099.7 1258.7ZM994 1258.7C995.1 1258.5 1002.5 1258.7 1006.1 1258.6C1005.8 1258.5 1003.3 1258.5 1001.6 1258.5C1002.2 1258.3 1009 1258.5 1012.2 1258.4C1011.1 1258.5 1009.5 1258.5 1007.7 1258.6C1012.3 1258.8 1023.3 1258.6 1030.3 1258.7C1020.8 1258.9 1003.9 1258.8 994 1258.7ZM781.2 1258.1C779.1 1258.3 770.7 1258.1 766.1 1258.2C768.2 1258 776.6 1258.2 781.2 1258.1ZM1271.8 1257.9C1267 1257.8 1265.7 1257.6 1259.7 1257.5C1262.4 1257.3 1272.5 1257.5 1271.8 1257.9ZM751 1242.3C747.9 1242.5 738.5 1242.3 732.9 1242.4C735.9 1242.1 745.4 1242.3 751 1242.3ZM1135.9 1241.3C1137.4 1241.1 1142.8 1241.4 1148 1241.3C1145.5 1241.6 1139.8 1241.4 1135.9 1241.3ZM926.1 1240.1C929.7 1239.9 939.6 1240.1 945.7 1240C944.3 1240.4 929.8 1240.3 926.1 1240.1ZM871.7 1240.2C874.3 1239.9 884.5 1240 891.3 1239.9C888.7 1240.3 876.6 1240 871.7 1240.2ZM1300.5 1255.8C1296.7 1255.8 1292.5 1255.7 1288.4 1256C1281.7 1255.8 1272.6 1255.7 1262.7 1255.6C1261.5 1255.6 1261.2 1255.7 1259.7 1255.7C1260.6 1255.9 1257.3 1256.3 1262.7 1256.2C1258 1256.7 1247.3 1256.2 1247.6 1255.9C1243 1255.8 1242.1 1256 1238.5 1256C1244.8 1256.3 1247.6 1256.7 1256.6 1256.5C1256.5 1256.9 1255.9 1257 1258.1 1257.5C1249.7 1257.5 1249.9 1257.7 1246 1258.1C1242.5 1258 1238.6 1257.9 1233.9 1257.9C1231.9 1257.9 1231.5 1258.1 1229.4 1258.1C1228.3 1258.4 1233.5 1258.3 1232.4 1258.5C1157.8 1258 1081.8 1258.4 1004.4 1258.1C984.6 1258.8 974.6 1258.1 951.6 1258.3C954.2 1258.6 966.4 1258.4 971.2 1258.6C915.3 1258.8 855.8 1258.5 811.2 1258.9C789.2 1258.5 758 1258.5 732.7 1258.5C727.4 1258.5 732.8 1258.7 729.7 1258.8C711.9 1258.8 711.4 1258.7 695 1258.7C697.1 1258.1 710.3 1258.2 722.2 1258.2C710.1 1258.1 685.1 1257.9 684.5 1258.2C657.1 1258.2 636.2 1258.3 606 1258.3C602.6 1258.5 596.1 1258.4 595.4 1258.7C584.3 1258.7 572.6 1258.7 565.2 1258.9C567.3 1259.1 575.7 1258.9 580.3 1259C571.5 1259.4 547.7 1259.3 544.1 1258.7C516.5 1258.7 487.4 1258.6 465.6 1259C443.4 1258.1 415.3 1258.8 385.6 1258.6C405.1 1258.8 374.6 1258.8 372 1258.9C355.5 1259 338.8 1259.2 323.7 1259.3C295.2 1259.6 272.1 1259.3 252.7 1259.4C204.8 1259.7 156.6 1259.4 116.8 1259C112.5 1259 110.5 1259.2 106.2 1259.2C106.2 1259.1 108.1 1259.1 109.2 1259.1C96.9 1258.6 81 1257.6 95.6 1256.7C94.3 1256.3 87.7 1256 82 1255.6C91.2 1254.4 86.7 1252.9 100.1 1251.8C92.2 1250.9 100.2 1249.8 100.1 1248.8C100 1247.7 92 1246.4 107.7 1245.7C112.9 1242.1 202.2 1243.5 248.1 1243.8C275.1 1243.3 303.4 1244.1 334.1 1243.9C338.6 1243.9 339.2 1243.7 343.2 1243.6C386.3 1243.9 424.7 1243.4 462.5 1243.4C439 1243.2 427.7 1243.3 400.6 1243.2C389.4 1243.1 405.5 1243.1 409.7 1243.1C494.6 1242.8 602.9 1242.7 711.6 1242.6C723 1242.6 737.4 1242.9 743.3 1242.5C760.2 1242.6 770.7 1242.6 785.6 1242.5C786.3 1242.4 777.4 1242.4 778.1 1242.5C790.7 1241.9 822.7 1242.4 844.5 1242.1C819.8 1241.5 760.7 1242 732.8 1241.8C782.5 1241.6 825.6 1241.8 871.7 1241.4C871.1 1241.6 878.6 1241.4 876.2 1241.7C901.6 1241.6 923.3 1241.7 944.1 1241.7C958.8 1241.7 973.9 1241.3 987.9 1241.7C1078.2 1241.9 1154.7 1241.9 1229.4 1242.6C1225.3 1242.9 1222.6 1242.3 1217.3 1242.6C1222.1 1242.7 1228.5 1242.8 1232.4 1243C1239.7 1242.6 1274.2 1242.9 1279.2 1243.8C1268 1243.7 1259.4 1243.4 1246 1243.4C1248.6 1243.6 1257.2 1243.5 1258.1 1243.8C1251 1243.9 1237.8 1243.7 1229.4 1243.6C1227.3 1243.6 1229.3 1243.8 1230.9 1243.8C1211.7 1243.8 1190.1 1243.1 1169 1243.5C1177.6 1243.6 1190.8 1243.4 1197.7 1243.8C1195.4 1243.9 1186.1 1243.7 1179.6 1243.8C1187.5 1244.1 1192.8 1244 1202.2 1244.1C1195.3 1243.7 1208.3 1244.1 1214.3 1244C1199.1 1244.3 1181.7 1244.4 1191.7 1245.1C1213.4 1245.2 1216.5 1245.2 1230.9 1245.2C1228.2 1245 1225.3 1245.2 1227.9 1244.8C1225.4 1244.8 1222.9 1244.8 1220.4 1244.8C1228.5 1244.8 1233.5 1244.3 1244.6 1244.3C1244.1 1244.4 1240.8 1244.4 1238.6 1244.4C1239.6 1244.7 1243.7 1244.8 1249.2 1244.8C1248.9 1245 1242 1244.9 1243.2 1245.2C1244.2 1245.5 1246.4 1245.1 1249.2 1245.2C1249.9 1245.5 1242.3 1245.3 1241.6 1245.5C1248 1245.5 1255.4 1245.7 1267.3 1245.7C1266.6 1245.8 1265.4 1245.9 1262.8 1245.9C1266.5 1246.1 1274.9 1245.9 1279.4 1245.9C1278.6 1246.3 1286.6 1246.2 1286.9 1246.6C1277.7 1246.2 1274.9 1246.8 1271.8 1246.3C1265.5 1246.9 1250.5 1246.5 1237.1 1246.7C1244.2 1246.8 1254.4 1246.8 1262.8 1246.9C1261.8 1247 1259.6 1247.1 1256.8 1247.1C1257.4 1247.2 1262.7 1247.4 1261.3 1247.1C1265.9 1247.3 1256.9 1247.4 1255.3 1247.5C1257.3 1247.5 1259.3 1247.5 1258.3 1247.9C1251.5 1248 1238.3 1247.4 1229.6 1247.9C1227.6 1247.8 1225 1247.8 1223.6 1247.6C1218.3 1247.7 1215.7 1248 1207 1247.9C1216.1 1247.7 1203.5 1247.7 1202.5 1247.4C1202.2 1247.7 1183.2 1247.5 1175.3 1247.7C1182.8 1247.9 1199.8 1247.8 1205.5 1247.8C1204.4 1247.9 1202.7 1247.9 1201 1248C1215 1248.1 1231 1248.3 1244.8 1247.9C1245.3 1248.2 1251.7 1248.1 1255.4 1248.3C1260.9 1248.3 1259.8 1247.9 1266 1247.9C1266.9 1248.5 1263.8 1248.6 1253.9 1248.7C1265.1 1248.8 1283.1 1248.5 1287.1 1249.6C1277.1 1249 1263.1 1248.9 1246.3 1249C1252.3 1249.2 1267.7 1248.9 1272 1249.3C1267.6 1249.3 1267.7 1249.5 1264.4 1249.6C1268.1 1249.9 1265.9 1249.7 1272 1250C1269 1250.2 1264.4 1249.8 1258.4 1249.9C1256 1250.2 1268.2 1250.1 1259.9 1250.2C1259.2 1250.3 1265.5 1250.5 1265.9 1250.3C1265.5 1250.4 1260 1250.8 1261.4 1251.1C1253.2 1251.2 1257 1251 1247.8 1251.2C1251.2 1251.7 1261.8 1251 1265.9 1251.3C1264.4 1251.1 1272.5 1250.7 1264.4 1250.7C1268.4 1250.3 1272.6 1250.7 1276.5 1251C1275.2 1251.3 1271.6 1250.9 1269 1251C1265.2 1251.7 1287 1252.6 1275 1252.9C1274 1253.1 1278.1 1253.1 1279.5 1253.2C1272 1253.6 1263 1253.3 1253.8 1253.6C1256.9 1253.7 1270.3 1253.7 1273.4 1253.6C1278.3 1253.7 1272 1253.9 1268.9 1253.8C1271.8 1254.4 1292.8 1253.9 1297.6 1254C1299 1254.2 1286.2 1254.4 1284 1254.7C1282.2 1254.6 1281.3 1254.4 1276.4 1254.5C1282.1 1254.3 1274.7 1254.4 1277.9 1254.1C1271.9 1254.5 1266.7 1254.4 1259.8 1254.8C1266.8 1255.2 1276.1 1255 1285.5 1255.5C1293.5 1255.3 1297.3 1255.3 1305.1 1255.5C1305 1255.3 1295.6 1255.5 1300.5 1255.8ZM764.6 1258.1C762 1258.4 749.1 1258 746.5 1258.3C802.3 1258.4 868.2 1258.9 917.1 1258.3C911 1258.2 901 1258.4 897.5 1258.2C899.3 1258.2 900.9 1258.1 902 1258C882.4 1258.2 836.4 1257.9 809.9 1258.2C811.7 1258.2 814.2 1258.2 814.4 1258.1C800.5 1258.1 766.2 1257.7 764.6 1258.1ZM1273.3 1252.2C1273.3 1252 1273.3 1251.8 1273.3 1251.7C1249.5 1251.6 1218.6 1251.4 1193.3 1251.7C1216.4 1251.7 1233.7 1251.8 1249.2 1252C1248 1252.1 1251.8 1252.1 1246.2 1252.3C1258.6 1252.4 1261.8 1252.1 1273.3 1252.2ZM1235.6 1247.4C1226.7 1247.4 1210.3 1247 1199.4 1247.3C1204.6 1247.3 1219.5 1247.2 1211.5 1247.5C1217.8 1247.7 1229.2 1247.5 1235.6 1247.4ZM311.7 1244.2C316.1 1244.3 313.4 1244.3 313.2 1244.6C322.8 1244.7 331.4 1244.8 343.4 1244.8C338.8 1244.2 323.6 1243.7 311.7 1244.2ZM411.3 1244.4C411.1 1244 390.2 1244 390.2 1244.4C398 1244.5 401.6 1244.3 411.3 1244.4ZM720.8 1243.9C720.7 1244 718.9 1244 719.3 1243.8C714.2 1244.1 706.5 1243.8 699.7 1244C702.9 1244.1 697.5 1244 696.7 1244.2C694.8 1244.1 693.6 1244.2 689.1 1244.2C676.9 1244.4 717.9 1244.3 720.8 1244.2C720.8 1244.2 722 1244.3 722.3 1244.2C717.6 1244.2 726.1 1243.9 720.8 1243.9ZM803.8 1243.8C820.2 1243.7 779.2 1243.6 799.3 1243.7C777.8 1243.6 742 1243.7 723.8 1244C751.7 1243.9 776.5 1244 803.8 1243.8ZM772.1 1243.2C764.8 1243 763.6 1243.3 757 1243C687.3 1243.6 636 1243 572.8 1243.1C631.4 1244.1 706.5 1243.4 772.1 1243.2ZM681.5 1243.1C686.1 1243 694.5 1243.2 696.6 1243C692 1243.1 683.6 1242.9 681.5 1243.1ZM874.7 1241.9C877.1 1242.2 885.6 1242.2 891.3 1242.1C885.8 1242 882.4 1241.8 874.7 1241.9ZM658.9 1258.6C649.9 1258.9 640.3 1258.7 631.7 1258.7C625.3 1258.6 645 1258.6 634.7 1258.5C639 1258.4 651.8 1258.5 658.9 1258.6ZM1249.1 1258.1C1252.4 1258.3 1251.3 1258.3 1253.6 1258.6C1250.8 1258.5 1246.5 1258.5 1243 1258.4C1245.5 1258.3 1248.4 1258.2 1249.1 1258.1C1250 1258.1 1250.9 1258 1249.1 1258.1Z" fill="#FF0000"/>
</svg>
