<?xml version="1.0" encoding="utf-8"?>
<!-- Generator: Adobe Illustrator 26.0.1, SVG Export Plug-In . SVG Version: 6.00 Build 0)  -->
<svg version="1.1" id="Ebene_1" xmlns="http://www.w3.org/2000/svg" xmlns:xlink="http://www.w3.org/1999/xlink" x="0px" y="0px"
	 viewBox="0 0 1351 1362.9" style="enable-background:new 0 0 1351 1362.9;" xml:space="preserve">
<style type="text/css">
	.st0{fill:#CF3201;}
</style>
<g>
	<g>
		<path class="st0" d="M126.4,488.9c-0.1-8.4,0.1-20.7-0.1-26.6C126.1,472.9,126.2,480.9,126.4,488.9z M126.4,945.6
			c-0.3-2.1-0.1-14-0.2-20.7C126.5,926.9,126.3,938.9,126.4,945.6z M126.2,613c0.2,3,0.1,12.8,0,16.2
			C125.9,625.7,126.2,617.5,126.2,613z M125.9,283.4c0.1,1.1,0.1,12.2,0,13.3C126,289.9,125.8,287.8,125.9,283.4z M125.9,386.9
			c-0.2-1.1,0-8.3-0.1-11.8c-0.1,0.2-0.1,2.7-0.1,4.4c-0.2-0.6,0-7.3-0.1-10.3c0.1,1.1,0.1,2.7,0.2,4.4c0.2-4.5,0-15.2,0.1-22.2
			C126.1,360.7,126,377.2,125.9,386.9z M125.3,595.3c0.2,2,0,10.3,0.1,14.8C125.2,608,125.4,599.8,125.3,595.3z M125.1,114.9
			c-0.1,4.7-0.3,6-0.4,11.8C124.5,124.2,124.7,114.3,125.1,114.9z M109.4,624.8c0.2,3,0,12.3,0.1,17.7
			C109.3,639.6,109.5,630.3,109.4,624.8z M108.5,248c-0.2-1.5,0.1-6.8,0-11.8C108.8,238.6,108.6,244.2,108.5,248z M107.3,453.4
			c-0.2-3.5,0-13.3-0.1-19.2C107.6,435.6,107.4,449.7,107.3,453.4z M107.4,506.6c-0.3-2.6-0.2-12.5-0.3-19.2
			C107.5,490,107.2,501.8,107.4,506.6z M122.9,86.9c0,3.7-0.1,7.9,0.2,11.8c-0.2,6.6-0.3,15.5-0.4,25.1c0,1.2,0.1,1.5,0.1,3
			c0.2-0.9,0.6,2.4,0.5-3c0.5,4.6,0,15.1-0.3,14.8c-0.1,4.5,0.1,5.4,0.1,8.9c0.3-6.2,0.7-8.9,0.5-17.7c0.4,0.1,0.5,0.7,1-1.5
			c0,8.2,0.2,8,0.6,11.8c-0.1,3.5-0.2,7.3-0.2,11.8c0,1.9,0.2,2.3,0.2,4.4c0.3,1.1,0.2-4.1,0.4-3c-0.5,73-0.1,147.4-0.4,223.2
			c0.7,19.3,0,29.1,0.2,51.7c0.3-2.6,0.1-14.5,0.3-19.2c0.2,54.8-0.1,113,0.3,156.7c-0.4,21.6-0.4,52.1-0.4,76.9
			c0,5.1,0.2-0.1,0.3,3c0,17.5-0.1,17.9-0.1,34c-0.6-2.1-0.5-15-0.5-26.6c-0.1,11.8-0.3,36.3,0,37c0,26.9,0.1,47.3,0.1,76.9
			c0.2,3.3,0.1,9.7,0.4,10.3c0,10.8,0,22.3,0.2,29.6c0.2-2,0-10.3,0.1-14.8c0.4,8.6,0.3,31.9-0.3,35.5c0,27-0.1,55.6,0.3,76.9
			c-0.9,21.7-0.2,49.3-0.4,78.3c0.2-19.1,0.2,10.8,0.3,13.3c0.1,16.1,0.3,32.5,0.4,47.3c0.3,27.9,0,50.5,0.1,69.5
			c0.3,46.9,0,94.1-0.4,133c0,4.2,0.2,6.2,0.2,10.3c-0.1,0-0.1-1.8-0.1-3c-0.5,12.1-1.5,27.6-2.4,13.3c-0.4,1.3-0.7,7.7-1.1,13.3
			c-1.2-9.1-2.7-4.6-3.8-17.7c-0.9,7.8-2-0.1-3,0c-1.1,0.1-2.4,8-3.1-7.4c-3.6-5.1-2.2-92.6-1.9-137.5c-0.5-26.4,0.3-54.1,0.1-84.2
			c0-4.4-0.2-5-0.3-8.9c0.3-42.2-0.2-79.8-0.2-116.8c-0.2,23-0.1,34-0.2,60.6c-0.1,11-0.1-4.8-0.1-8.9
			c-0.3-83.1-0.4-189.1-0.5-295.6c0-11.2,0.3-25.2-0.1-31c0.1-16.5,0.1-26.8,0-41.4c-0.1-0.7-0.1,8.1,0,7.4
			c-0.6-12.3-0.1-43.7-0.4-65c-0.6,24.2-0.1,82.1-0.3,109.4c-0.2-48.7,0-90.9-0.4-136c0.2,0.6,0-6.7,0.3-4.4
			c-0.1-24.9,0-46.1,0-66.5c0-14.4-0.4-29.2,0-42.9c0.2-88.4,0.2-163.3,0.9-236.5c0.3,4-0.3,6.7,0,11.8c0.1-4.7,0.2-11,0.4-14.8
			c-0.4-7.1-0.1-40.9,0.8-45.8c-0.1,11-0.4,19.3-0.4,32.5c0.2-2.6,0.1-11,0.4-11.8c0.1,7-0.1,19.8-0.2,28.1c0,2.1,0.2,0.1,0.2-1.5
			c0,18.8-0.7,39.9-0.3,60.6c0.1-8.4-0.1-21.3,0.3-28.1c0.1,2.3-0.1,11.3,0,17.7c0.3-7.8,0.2-12.9,0.3-22.2c-0.4,6.8,0-6-0.1-11.8
			c0.3,14.9,0.4,31.9,1.1,22.2c0.1-21.2,0.1-24.3,0.1-38.4c-0.2,2.6,0,5.5-0.4,3c0,2.5,0,4.9,0,7.4c0-8-0.5-12.8-0.5-23.6
			c0.1,0.5,0.1,3.7,0.1,5.9c0.3-0.9,0.4-5,0.4-10.3c0.2,0.3,0.1,7,0.4,5.9c0.3-1-0.1-3.2,0-5.9c0.3-0.7,0.1,6.8,0.3,7.4
			c0-6.2,0.2-13.5,0.2-25.1c0.1,0.6,0.2,1.9,0.2,4.4c0.2-3.6,0-11.8,0-16.3c0.4,0.8,0.3-7.1,0.7-7.4c-0.4,9.1,0.2,11.8-0.3,14.8
			c0.6,6.2,0.2,20.9,0.4,34c0.1-6.9,0.1-16.9,0.2-25.1c0.1,1,0.2,3.2,0.2,5.9c0.1-0.6,0.3-5.7,0-4.4c0.2-4.5,0.3,4.3,0.4,5.9
			c0-2,0-3.9,0.4-3c0.1,6.7-0.5,19.6,0,28.1c-0.1,2-0.1,4.5-0.3,5.9c0.1,5.2,0.4,7.7,0.3,16.2c-0.2-8.9-0.2,3.4-0.5,4.4
			c0.3,0.3,0.1,18.9,0.3,26.6c0.2-7.4,0.1-24,0.1-29.6c0.1,1.1,0.1,2.7,0.2,4.4c0.1-13.7,0.3-29.4-0.1-42.9
			c0.3-0.5,0.2-6.8,0.4-10.3c0-5.4-0.4-4.3-0.4-10.3c0.6-0.9,0.7,2.2,0.8,11.8c0.1-11-0.2-28.6,0.9-32.5c-0.6,9.8-0.7,23.5-0.6,39.9
			c0.2-5.9-0.1-21,0.3-25.1c0,4.3,0.2,4.2,0.3,7.4c0.3-3.6,0.1-1.4,0.4-7.4c0.2,2.9-0.2,7.4-0.1,13.3c0.3,2.3,0.2-9.6,0.3-1.5
			c0.1,0.6,0.3-5.5,0.1-5.9c0.1,0.4,0.5,5.7,0.8,4.4c0.1,8-0.1,4.3,0.1,13.3c0.5-3.3-0.2-13.7,0.1-17.7c-0.2,1.4-0.6-6.5-0.6,1.5
			c-0.4-3.9,0-8,0.3-11.8c0.3,1.3-0.1,4.7,0,7.4c0.7,3.7,1.6-17.6,1.9-5.9c0.2,1,0.2-3.1,0.3-4.4c0.4,7.4,0.1,16.2,0.4,25.1
			c0.1-3,0.1-16.2,0-19.2c0.1-4.8,0.3,1.4,0.2,4.4c0.6-2.9,0.1-23.4,0.2-28.1c0.2-1.4,0.4,11.2,0.7,13.3c-0.1,1.8-0.3,2.7-0.2,7.4
			c-0.2-5.5-0.1,1.7-0.4-1.5c0.4,5.9,0.3,11,0.7,17.7c0.4-6.8,0.2-16,0.7-25.1c-0.2-7.8-0.2-11.6,0-19.2
			C122.5,82.4,122.7,91.6,122.9,86.9z M125.3,611.5c0.3,2.5-0.1,15.2,0.2,17.7c0.1-54.7,0.6-119.1,0-167c-0.1,5.9,0.1,15.7-0.1,19.2
			c0-1.7-0.1-3.4-0.2-4.4c0.2,19.2-0.1,64.3,0.2,90.2c0-1.7,0-4.2-0.1-4.4C125.3,576.3,124.9,610,125.3,611.5z M119.4,113.5
			c-0.2,0-0.4,0-0.5,0c-0.1,23.3-0.3,53.5,0,78.3c0-22.6,0.1-39.5,0.3-54.7c0.1,1.2,0.1-2.6,0.3,3
			C119.6,127.8,119.2,124.7,119.4,113.5z M114.6,150.4c0,8.7-0.4,24.8-0.1,35.5c0-5-0.1-19.7,0.2-11.8
			C114.9,167.8,114.7,156.6,114.6,150.4z M111.4,1054.9c0.1-4.3,0.1-1.7,0.4-1.5c0.1-9.4,0.2-17.9,0.2-29.6
			C111.4,1028.3,110.9,1043.3,111.4,1054.9z M111.5,957.4c-0.4,0.2-0.4,20.6,0,20.7C111.7,970.4,111.5,966.9,111.5,957.4z
			 M111.1,654.4c0.1,0.1,0.1,1.9-0.1,1.5c0.3,5,0,12.5,0.2,19.2c0.1-3.1,0,2.1,0.2,3c-0.1,1.9,0,3.1,0,7.4c0.2,12,0.1-28.2,0-31
			c0,0,0.1-1.2,0-1.5C111.4,657.5,111.1,649.2,111.1,654.4z M111,573.1c-0.1-16.1-0.2,24.1-0.1,4.4c-0.1,21.1,0,56.1,0.3,73.9
			C111.1,624.1,111.2,599.9,111,573.1z M110.4,604.1c-0.2,7.2,0.1,8.3-0.2,14.8c0.6,68.2,0,118.4,0.1,180.3
			C111.3,741.9,110.6,668.4,110.4,604.1z M110.3,692.8c-0.1-4.5,0.1-12.7-0.1-14.8C110.3,682.5,110.1,690.8,110.3,692.8z
			 M109.1,503.7c0.3-2.4,0.3-10.7,0.2-16.3C109.2,492.9,109,496.2,109.1,503.7z M125.7,715c0.3,8.8,0.1,18.2,0.1,26.6
			c-0.1,6.2-0.1-13.1-0.2-3C125.6,734.4,125.7,721.9,125.7,715z M125.3,137.1c0.2-3.2,0.2-2.1,0.5-4.4c-0.1,2.8-0.1,7-0.2,10.3
			C125.5,140.7,125.4,137.9,125.3,137.1C125.2,135.4,125.3,136.3,125.3,137.1z"/>
	</g>
</g>
<g>
	<g>
		<path class="st0" d="M1265.5,478.7c-0.1-8.7,0.1-21.4-0.1-27.5C1265.2,462.2,1265.3,470.5,1265.5,478.7z M1265.5,951.6
			c-0.3-2.2-0.1-14.5-0.2-21.4C1265.6,932.3,1265.4,944.7,1265.5,951.6z M1265.3,607.3c0.2,3.1,0.1,13.2,0,16.8
			C1265,620.4,1265.3,611.9,1265.3,607.3z M1265,266c0.1,1.2,0.1,12.6,0,13.8C1265.1,272.7,1264.9,270.5,1265,266z M1265,373.1
			c-0.2-1.1,0-8.6-0.1-12.2c-0.1,0.3-0.1,2.8-0.1,4.6c-0.2-0.7,0-7.5-0.1-10.7c0.1,1.1,0.1,2.8,0.2,4.6c0.2-4.6,0-15.8,0.1-23
			C1265.2,346,1265.1,363.2,1265,373.1z M1264.4,588.9c0.2,2.1,0,10.6,0.1,15.3C1264.3,602.1,1264.5,593.6,1264.4,588.9z
			 M1264.2,91.6c-0.1,4.9-0.3,6.2-0.4,12.2C1263.6,101.1,1263.8,90.9,1264.2,91.6z M1248.5,619.5c0.2,3.1,0,12.7,0.1,18.4
			C1248.4,634.8,1248.6,625.2,1248.5,619.5z M1247.6,229.3c-0.2-1.6,0.1-7,0-12.2C1247.9,219.6,1247.7,225.4,1247.6,229.3z
			 M1246.4,442c-0.2-3.6,0-13.7-0.1-19.9C1246.7,423.6,1246.5,438.2,1246.4,442z M1246.5,497.1c-0.3-2.7-0.2-13-0.3-19.9
			C1246.6,479.9,1246.3,492.2,1246.5,497.1z M1262,62.5c0,3.9-0.1,8.1,0.2,12.2c-0.2,6.8-0.3,16.1-0.4,26c0,1.2,0.1,1.5,0.1,3.1
			c0.2-0.9,0.6,2.5,0.5-3.1c0.5,4.8,0,15.7-0.3,15.3c-0.1,4.7,0.1,5.6,0.1,9.2c0.3-6.4,0.7-9.2,0.5-18.4c0.4,0.1,0.5,0.7,1-1.5
			c0,8.5,0.2,8.3,0.6,12.2c-0.1,3.6-0.2,7.5-0.2,12.2c0,2,0.2,2.4,0.2,4.6c0.3,1.1,0.2-4.2,0.4-3.1c-0.5,75.6-0.1,152.7-0.4,231.1
			c0.7,20,0,30.2,0.2,53.6c0.3-2.7,0.1-15,0.3-19.9c0.2,56.7-0.1,117,0.3,162.2c-0.4,22.3-0.4,54-0.4,79.6c0,5.3,0.2-0.1,0.3,3.1
			c0,18.1-0.1,18.5-0.1,35.2c-0.6-2.1-0.5-15.5-0.5-27.5c-0.1,12.3-0.3,37.6,0,38.3c0,27.8,0.1,48.9,0.1,79.6
			c0.2,3.4,0.1,10,0.4,10.7c0,11.2,0,23.1,0.2,30.6c0.2-2.1,0-10.7,0.1-15.3c0.4,8.9,0.3,33.1-0.3,36.7c0,28-0.1,57.5,0.3,79.6
			c-0.9,22.5-0.2,51-0.4,81.1c0.2-19.8,0.2,11.1,0.3,13.8c0.1,16.7,0.3,33.6,0.4,49c0.3,28.9,0,52.3,0.1,71.9
			c0.3,48.5,0,97.5-0.4,137.7c0,4.3,0.2,6.4,0.2,10.7c-0.1,0-0.1-1.9-0.1-3.1c-0.5,12.5-1.5,28.6-2.4,13.8c-0.4,1.3-0.7,8-1.1,13.8
			c-1.2-9.4-2.7-4.7-3.8-18.4c-0.9,8-2-0.1-3,0c-1.1,0.1-2.4,8.2-3.1-7.7c-3.6-5.3-2.2-95.8-1.9-142.3c-0.5-27.4,0.3-56,0.1-87.2
			c0-4.6-0.2-5.2-0.3-9.2c0.3-43.7-0.2-82.7-0.2-120.9c-0.2,23.8-0.1,35.2-0.2,62.7c-0.1,11.4-0.1-5-0.1-9.2
			c-0.3-86-0.4-195.8-0.5-306.1c0-11.6,0.3-26.1-0.1-32.1c0.1-17.1,0.1-27.7,0-42.9c-0.1-0.7-0.1,8.3,0,7.7
			c-0.6-12.8-0.1-45.2-0.4-67.3c-0.6,25.1-0.1,85-0.3,113.2c-0.2-50.4,0-94.1-0.4-140.8c0.2,0.6,0-7,0.3-4.6
			c-0.1-25.7,0-47.7,0-68.9c0-14.9-0.4-30.2,0-44.4c0.2-91.5,0.2-169.1,0.9-244.9c0.3,4.2-0.3,6.9,0,12.2c0.1-4.8,0.2-11.4,0.4-15.3
			c-0.4-7.4-0.1-42.4,0.8-47.4c-0.1,11.4-0.4,20-0.4,33.7c0.2-2.7,0.1-11.4,0.4-12.2c0.1,7.2-0.1,20.5-0.2,29.1
			c0,2.1,0.2,0.1,0.2-1.5c0,19.4-0.7,41.3-0.3,62.7c0.1-8.7-0.1-22.1,0.3-29.1c0.1,2.3-0.1,11.7,0,18.4c0.3-8,0.2-13.4,0.3-23
			c-0.4,7,0-6.2-0.1-12.2c0.3,15.4,0.4,33.1,1.1,23c0.1-22,0.1-25.1,0.1-39.8c-0.2,2.7,0,5.7-0.4,3.1c0,2.5,0,5.1,0,7.7
			c0-8.2-0.5-13.3-0.5-24.5c0.1,0.5,0.1,3.8,0.1,6.1c0.3-1,0.4-5.2,0.4-10.7c0.2,0.3,0.1,7.3,0.4,6.1c0.3-1-0.1-3.3,0-6.1
			c0.3-0.7,0.1,7,0.3,7.7c0-6.5,0.2-14,0.2-26c0.1,0.7,0.2,2,0.2,4.6c0.2-3.7,0-12.2,0-16.8c0.4,0.8,0.3-7.3,0.7-7.6
			c-0.4,9.4,0.2,12.2-0.3,15.3c0.6,6.4,0.2,21.6,0.4,35.2c0.1-7.2,0.1-17.5,0.2-26c0.1,1,0.2,3.3,0.2,6.1c0.1-0.6,0.3-5.9,0-4.6
			c0.2-4.7,0.3,4.5,0.4,6.1c0-2,0-4.1,0.4-3.1c0.1,6.9-0.5,20.3,0,29.1c-0.1,2-0.1,4.6-0.3,6.1c0.1,5.4,0.4,8,0.3,16.8
			c-0.2-9.2-0.2,3.5-0.5,4.6c0.3,0.3,0.1,19.6,0.3,27.5c0.2-7.6,0.1-24.9,0.1-30.6c0.1,1.1,0.1,2.8,0.2,4.6
			c0.1-14.1,0.3-30.5-0.1-44.4c0.3-0.5,0.2-7,0.4-10.7c0-5.6-0.4-4.4-0.4-10.7c0.6-1,0.7,2.2,0.8,12.2c0.1-11.4-0.2-29.6,0.9-33.7
			c-0.6,10.1-0.7,24.3-0.6,41.3c0.2-6.1-0.1-21.7,0.3-26c0,4.4,0.2,4.3,0.3,7.7c0.3-3.7,0.1-1.5,0.4-7.7c0.2,3-0.2,7.7-0.1,13.8
			c0.3,2.4,0.2-9.9,0.3-1.5c0.1,0.7,0.3-5.7,0.1-6.1c0.1,0.5,0.5,5.9,0.8,4.6c0.1,8.3-0.1,4.4,0.1,13.8c0.5-3.5-0.2-14.2,0.1-18.4
			c-0.2,1.5-0.6-6.7-0.6,1.5c-0.4-4,0-8.3,0.3-12.2c0.3,1.3-0.1,4.9,0,7.6c0.7,3.9,1.6-18.3,1.9-6.1c0.2,1,0.2-3.2,0.3-4.6
			c0.4,7.6,0.1,16.8,0.4,26c0.1-3.1,0.1-16.8,0-19.9c0.1-4.9,0.3,1.5,0.2,4.6c0.6-3,0.1-24.2,0.2-29.1c0.2-1.4,0.4,11.6,0.7,13.8
			c-0.1,1.8-0.3,2.8-0.2,7.7c-0.2-5.7-0.1,1.8-0.4-1.5c0.4,6.1,0.3,11.4,0.7,18.4c0.4-7.1,0.2-16.5,0.7-26c-0.2-8.1-0.2-12,0-19.9
			C1261.6,57.9,1261.8,67.4,1262,62.5z M1264.4,605.7c0.3,2.6-0.1,15.7,0.2,18.4c0.1-56.6,0.6-123.4,0-172.9
			c-0.1,6.2,0.1,16.3-0.1,19.9c0-1.8-0.1-3.5-0.2-4.6c0.2,19.9-0.1,66.5,0.2,93.4c0-1.8,0-4.3-0.1-4.6
			C1264.4,569.3,1264,604.1,1264.4,605.7z M1258.5,90c-0.2,0-0.4,0-0.5,0c-0.1,24.1-0.3,55.4,0,81.1c0-23.4,0.1-40.9,0.3-56.6
			c0.1,1.2,0.1-2.7,0.3,3.1C1258.7,104.9,1258.3,101.7,1258.5,90z M1253.7,128.3c0,9-0.4,25.7-0.1,36.7c0-5.2-0.1-20.4,0.2-12.2
			C1254,146.3,1253.8,134.7,1253.7,128.3z M1250.5,1064.8c0.1-4.5,0.1-1.7,0.4-1.5c0.1-9.7,0.2-18.5,0.2-30.6
			C1250.5,1037.3,1250,1052.8,1250.5,1064.8z M1250.6,963.8c-0.4,0.2-0.4,21.4,0,21.4C1250.8,977.3,1250.6,973.7,1250.6,963.8z
			 M1250.2,650.1c0.1,0.1,0.1,2-0.1,1.5c0.3,5.2,0,12.9,0.2,19.9c0.1-3.2,0,2.2,0.2,3.1c-0.1,2,0,3.2,0,7.7
			c0.2,12.4,0.1-29.1,0-32.1c0,0,0.1-1.2,0-1.5C1250.5,653.4,1250.2,644.7,1250.2,650.1z M1250.1,566c-0.1-16.7-0.2,25-0.1,4.6
			c-0.1,21.8,0,58.1,0.3,76.5C1250.2,618.8,1250.3,593.6,1250.1,566z M1249.5,598.1c-0.2,7.4,0.1,8.6-0.2,15.3
			c0.6,70.6,0,122.6,0.1,186.7C1250.4,740.7,1249.7,664.6,1249.5,598.1z M1249.4,689.9c-0.1-4.6,0.1-13.2-0.1-15.3
			C1249.4,679.3,1249.2,687.8,1249.4,689.9z M1248.2,494c0.3-2.5,0.3-11.1,0.2-16.8C1248.3,482.9,1248.1,486.3,1248.2,494z
			 M1264.8,712.9c0.3,9.2,0.1,18.9,0.1,27.5c-0.1,6.5-0.1-13.5-0.2-3.1C1264.7,733,1264.8,720.1,1264.8,712.9z M1264.4,114.5
			c0.2-3.3,0.2-2.2,0.5-4.6c-0.1,2.9-0.1,7.2-0.2,10.7C1264.6,118.2,1264.5,115.3,1264.4,114.5
			C1264.3,112.8,1264.4,113.7,1264.4,114.5z"/>
	</g>
</g>
<g>
	<g>
		<path class="st0" d="M865.3,124.1c8.5-0.1,21,0.1,27.1-0.1C881.5,123.8,873.4,123.9,865.3,124.1z M400.6,124.1
			c2.1-0.3,14.3-0.1,21.1-0.2C419.5,124.2,407.4,124,400.6,124.1z M739,123.9c-3.1,0.2-13,0.1-16.5,0
			C726.1,123.6,734.4,123.9,739,123.9z M1074.4,123.6c-1.1,0.1-12.4,0.1-13.5,0C1067.8,123.7,1069.9,123.5,1074.4,123.6z
			 M969.1,123.6c1.1-0.2,8.4,0,12-0.1c-0.3-0.1-2.7-0.1-4.5-0.1c0.6-0.2,7.4,0,10.5-0.1c-1.1,0.1-2.7,0.1-4.5,0.2
			c4.5,0.2,15.5,0,22.6,0.1C995.8,123.8,978.9,123.7,969.1,123.6z M757,123c-2.1,0.2-10.5,0-15,0.1C744.1,122.9,752.5,123.1,757,123
			z M1245.8,122.8c-4.8-0.1-6.1-0.3-12-0.4C1236.4,122.2,1246.5,122.4,1245.8,122.8z M726.9,107.1c-3.1,0.2-12.5,0-18.1,0.1
			C712,107,721.4,107.2,726.9,107.1z M1110.5,106.2c1.5-0.2,6.9,0.1,12,0C1120,106.5,1114.3,106.3,1110.5,106.2z M901.4,105
			c3.6-0.2,13.5,0,19.5-0.1C919.5,105.2,905.1,105.1,901.4,105z M847.3,105.1c2.6-0.3,12.7-0.2,19.6-0.3
			C864.2,105.2,852.1,104.9,847.3,105.1z M1274.4,120.6c-3.8,0-8-0.1-12,0.2c-6.7-0.2-15.8-0.3-25.6-0.4c-1.2,0-1.5,0.1-3,0.1
			c0.9,0.2-2.4,0.6,3,0.5c-4.7,0.5-15.4,0-15-0.3c-4.6-0.1-5.5,0.1-9,0.1c6.3,0.3,9,0.7,18,0.5c-0.1,0.4-0.7,0.5,1.5,1
			c-8.3,0-8.2,0.2-12,0.6c-3.5-0.1-7.4-0.2-12-0.2c-2,0-2.4,0.2-4.5,0.2c-1.1,0.3,4.1,0.2,3,0.4c-74.3-0.5-150-0.1-227.1-0.4
			c-19.7,0.7-29.7,0-52.6,0.2c2.6,0.3,14.7,0.1,19.5,0.3c-55.7,0.2-115-0.1-159.4,0.3c-22-0.4-53-0.4-78.2-0.4c-5.2,0,0.1,0.2-3,0.3
			c-17.8,0-18.2-0.1-34.6-0.1c2.1-0.6,15.3-0.5,27.1-0.5c-12-0.1-37-0.3-37.6,0c-27.3,0-48.1,0.1-78.2,0.1
			c-3.3,0.2-9.9,0.1-10.5,0.4c-11,0-22.7,0-30.1,0.2c2.1,0.2,10.5,0,15,0.1c-8.8,0.4-32.5,0.3-36.1-0.3c-27.5,0-56.5-0.1-78.2,0.3
			c-22.1-0.9-50.1-0.2-79.7-0.4c19.5,0.2-10.9,0.2-13.5,0.3c-16.4,0.1-33,0.3-48.1,0.4c-28.4,0.3-51.4,0-70.7,0.1
			c-47.7,0.3-95.8,0-135.4-0.4c-4.3,0-6.3,0.2-10.5,0.2c0-0.1,1.9-0.1,3-0.1c-12.3-0.5-28.1-1.5-13.5-2.4c-1.3-0.4-7.8-0.7-13.5-1.1
			c9.2-1.2,4.7-2.7,18.1-3.8c-7.9-0.9,0.1-2,0-3c-0.1-1.1-8.1-2.4,7.5-3.1c5.2-3.6,94.2-2.2,139.9-1.9c26.9-0.5,55.1,0.3,85.7,0.1
			c4.5,0,5.1-0.2,9-0.3c43,0.3,81.2-0.2,118.8-0.2c-23.4-0.2-34.6-0.1-61.7-0.2c-11.2-0.1,4.9-0.1,9-0.1
			c84.5-0.3,192.4-0.4,300.8-0.5c11.4,0,25.7,0.3,31.6-0.1c16.8,0.1,27.3,0.1,42.1,0c0.7-0.1-8.2-0.1-7.5,0
			c12.5-0.6,44.5-0.1,66.2-0.4c-24.7-0.6-83.5-0.1-111.3-0.3c49.5-0.2,92.5,0,138.4-0.4c-0.6,0.2,6.9,0,4.5,0.3
			c25.3-0.1,46.9,0,67.7,0c14.7,0,29.7-0.4,43.6,0c89.9,0.2,166.2,0.2,240.6,0.9c-4.1,0.3-6.8-0.3-12,0c4.7,0.1,11.2,0.2,15,0.4
			c7.3-0.4,41.6-0.1,46.6,0.8c-11.2-0.1-19.7-0.4-33.1-0.4c2.6,0.2,11.2,0.1,12,0.4c-7.1,0.1-20.2-0.1-28.6-0.2
			c-2.1,0-0.1,0.2,1.5,0.2c-19.1,0-40.6-0.7-61.7-0.3c8.6,0.1,21.7-0.1,28.6,0.3c-2.3,0.1-11.5-0.1-18.1,0
			c7.9,0.3,13.2,0.2,22.6,0.3c-6.9-0.4,6.1,0,12-0.1c-15.1,0.3-32.5,0.4-22.6,1.1c21.6,0.1,24.7,0.1,39.1,0.1c-2.7-0.2-5.6,0-3-0.4
			c-2.5,0-5,0-7.5,0c8.1,0,13-0.5,24.1-0.5c-0.5,0.1-3.8,0.1-6,0.1c0.9,0.3,5.1,0.4,10.5,0.4c-0.3,0.2-7.2,0.1-6,0.4
			c1,0.3,3.2-0.1,6,0c0.7,0.3-6.9,0.1-7.5,0.3c6.4,0,13.7,0.2,25.6,0.2c-0.7,0.1-1.9,0.2-4.5,0.2c3.7,0.2,12,0,16.5,0
			c-0.8,0.4,7.2,0.3,7.5,0.7c-9.2-0.4-12,0.2-15-0.3c-6.3,0.6-21.2,0.2-34.6,0.4c7,0.1,17.2,0.1,25.6,0.2c-1,0.1-3.2,0.2-6,0.2
			c0.6,0.1,5.8,0.3,4.5,0c4.6,0.2-4.4,0.3-6,0.4c2,0,4,0,3,0.4c-6.8,0.1-19.9-0.5-28.6,0c-2-0.1-4.5-0.1-6-0.3
			c-5.3,0.1-7.8,0.4-16.5,0.3c9.1-0.2-3.5-0.2-4.5-0.5c-0.3,0.3-19.3,0.1-27.1,0.3c7.5,0.2,24.4,0.1,30.1,0.1
			c-1.1,0.1-2.7,0.1-4.5,0.2c13.9,0.1,29.9,0.3,43.6-0.1c0.5,0.3,6.9,0.2,10.5,0.4c5.5,0,4.3-0.4,10.5-0.4c0.9,0.6-2.2,0.7-12,0.8
			c11.2,0.1,29.1-0.2,33.1,0.9c-10-0.6-23.9-0.7-40.6-0.6c6,0.2,21.3-0.1,25.6,0.3c-4.4,0-4.2,0.2-7.5,0.3c3.7,0.3,1.5,0.1,7.5,0.4
			c-2.9,0.2-7.5-0.2-13.5-0.1c-2.4,0.3,9.7,0.2,1.5,0.3c-0.7,0.1,5.6,0.3,6,0.1c-0.4,0.1-5.8,0.5-4.5,0.8c-8.1,0.1-4.3-0.1-13.5,0.1
			c3.4,0.5,14-0.2,18.1,0.1c-1.4-0.2,6.6-0.6-1.5-0.6c3.9-0.4,8.2,0,12,0.3c-1.3,0.3-4.8-0.1-7.5,0c-3.8,0.7,17.9,1.6,6,1.9
			c-1,0.2,3.1,0.2,4.5,0.3c-7.5,0.4-16.5,0.1-25.6,0.4c3.1,0.1,16.5,0.1,19.5,0c4.8,0.1-1.4,0.3-4.5,0.2c2.9,0.6,23.8,0.1,28.6,0.2
			c1.4,0.2-11.4,0.4-13.5,0.7c-1.8-0.1-2.7-0.3-7.5-0.2c5.6-0.2-1.7-0.1,1.5-0.4c-6,0.4-11.2,0.3-18,0.7c7,0.4,16.2,0.2,25.6,0.7
			c7.9-0.2,11.8-0.2,19.5,0C1278.9,120.2,1269.5,120.4,1274.4,120.6z M740.5,123c-2.6,0.3-15.5-0.1-18,0.2
			c55.6,0.1,121.2,0.6,169.9,0c-6-0.1-16,0.1-19.6-0.1c1.8,0,3.4-0.1,4.5-0.2c-19.6,0.2-65.4-0.1-91.7,0.2c1.8,0,4.3,0,4.5-0.1
			C776.3,123,742.1,122.6,740.5,123z M1247.3,117.1c0-0.2,0-0.4,0-0.5c-23.7-0.1-54.5-0.3-79.7,0c23,0,40.2,0.1,55.7,0.3
			c-1.2,0.1,2.6,0.1-3,0.3C1232.7,117.3,1235.9,116.9,1247.3,117.1z M1209.7,112.3c-8.9,0-25.3-0.4-36.1-0.1c5.1,0,20-0.1,12,0.2
			C1192,112.6,1203.4,112.4,1209.7,112.3z M289.3,109.1c4.4,0.1,1.7,0.1,1.5,0.4c9.6,0.1,18.2,0.2,30.1,0.2
			C316.3,109.1,301.1,108.6,289.3,109.1z M388.6,109.2c-0.2-0.4-21-0.4-21.1,0C375.4,109.4,378.9,109.2,388.6,109.2z M696.9,108.8
			c-0.1,0.1-1.9,0.1-1.5-0.1c-5.1,0.3-12.7,0-19.5,0.2c3.2,0.1-2.1,0-3,0.2c-1.9-0.1-3.1,0-7.5,0c-12.2,0.2,28.6,0.1,31.6,0
			c0,0,1.2,0.1,1.5,0C693.7,109.1,702.2,108.8,696.9,108.8z M779.6,108.7c16.4-0.1-24.5-0.2-4.5-0.1c-21.4-0.1-57.1,0-75.2,0.3
			C727.7,108.7,752.4,108.9,779.6,108.7z M748,108.1c-7.3-0.2-8.4,0.1-15-0.2c-69.4,0.6-120.5,0-183.5,0.1
			C607.8,109,682.6,108.3,748,108.1z M657.8,108c4.6-0.1,13,0.1,15-0.1C668.2,108,659.9,107.8,657.8,108z M850.3,106.8
			c2.4,0.3,10.9,0.3,16.6,0.2C861.2,106.9,857.9,106.7,850.3,106.8z M635.2,123.4c-9,0.3-18.5,0.1-27.1,0.1c-6.3-0.1,13.3-0.1,3-0.2
			C615.5,123.2,628.1,123.4,635.2,123.4z M1223.3,123c3.2,0.2,2.2,0.2,4.5,0.5c-2.8-0.1-7.1-0.1-10.5-0.2
			C1219.6,123.2,1222.5,123.1,1223.3,123C1225,122.9,1224.1,123,1223.3,123z"/>
	</g>
</g>
<g>
	<g>
		<path class="st0" d="M889.9,1259.2c8.6-0.1,21.1,0.1,27.2-0.1C906.1,1259,897.9,1259,889.9,1259.2z M423.4,1259.2
			c2.1-0.3,14.3-0.1,21.1-0.2C442.4,1259.3,430.2,1259.1,423.4,1259.2z M763,1259c-3.1,0.2-13,0.1-16.6,0
			C750.1,1258.8,758.5,1259,763,1259z M1099.7,1258.7c-1.2,0.1-12.4,0.1-13.6,0C1093.1,1258.8,1095.2,1258.6,1099.7,1258.7z
			 M994,1258.7c1.1-0.2,8.5,0,12.1-0.1c-0.3-0.1-2.8-0.1-4.5-0.1c0.6-0.2,7.4,0,10.6-0.1c-1.1,0.1-2.7,0.1-4.5,0.2
			c4.6,0.2,15.6,0,22.6,0.1C1020.8,1258.9,1003.9,1258.8,994,1258.7z M781.2,1258.1c-2.1,0.2-10.5,0-15.1,0.1
			C768.2,1258,776.6,1258.2,781.2,1258.1z M1271.8,1257.9c-4.8-0.1-6.1-0.3-12.1-0.4C1262.4,1257.3,1272.5,1257.5,1271.8,1257.9z
			 M751,1242.3c-3.1,0.2-12.5,0-18.1,0.1C735.9,1242.1,745.4,1242.3,751,1242.3z M1135.9,1241.3c1.5-0.2,6.9,0.1,12.1,0
			C1145.5,1241.6,1139.8,1241.4,1135.9,1241.3z M926.1,1240.1c3.6-0.2,13.5,0,19.6-0.1C944.3,1240.4,929.8,1240.3,926.1,1240.1z
			 M871.7,1240.2c2.6-0.3,12.8-0.2,19.6-0.3C888.7,1240.3,876.6,1240,871.7,1240.2z M1300.5,1255.8c-3.8,0-8-0.1-12.1,0.2
			c-6.7-0.2-15.8-0.3-25.7-0.4c-1.2,0-1.5,0.1-3,0.1c0.9,0.2-2.4,0.6,3,0.5c-4.7,0.5-15.4,0-15.1-0.3c-4.6-0.1-5.5,0.1-9.1,0.1
			c6.3,0.3,9.1,0.7,18.1,0.5c-0.1,0.4-0.7,0.5,1.5,1c-8.4,0-8.2,0.2-12.1,0.6c-3.5-0.1-7.4-0.2-12.1-0.2c-2,0-2.4,0.2-4.5,0.2
			c-1.1,0.3,4.1,0.2,3,0.4c-74.6-0.5-150.6-0.1-228-0.4c-19.8,0.7-29.8,0-52.8,0.2c2.6,0.3,14.8,0.1,19.6,0.3
			c-55.9,0.2-115.4-0.1-160,0.3c-22-0.4-53.2-0.4-78.5-0.4c-5.3,0,0.1,0.2-3,0.3c-17.8,0-18.3-0.1-34.7-0.1
			c2.1-0.6,15.3-0.5,27.2-0.5c-12.1-0.1-37.1-0.3-37.7,0c-27.4,0-48.3,0.1-78.5,0.1c-3.4,0.2-9.9,0.1-10.6,0.4
			c-11.1,0-22.8,0-30.2,0.2c2.1,0.2,10.5,0,15.1,0.1c-8.8,0.4-32.6,0.3-36.2-0.3c-27.6,0-56.7-0.1-78.5,0.3
			c-22.2-0.9-50.3-0.2-80-0.4c19.5,0.2-11,0.2-13.6,0.3c-16.5,0.1-33.2,0.3-48.3,0.4c-28.5,0.3-51.6,0-71,0.1
			c-47.9,0.3-96.1,0-135.9-0.4c-4.3,0-6.3,0.2-10.6,0.2c0-0.1,1.9-0.1,3-0.1c-12.3-0.5-28.2-1.5-13.6-2.4c-1.3-0.4-7.9-0.7-13.6-1.1
			c9.2-1.2,4.7-2.7,18.1-3.8c-7.9-0.9,0.1-2,0-3c-0.1-1.1-8.1-2.4,7.6-3.1c5.2-3.6,94.5-2.2,140.4-1.9c27-0.5,55.3,0.3,86,0.1
			c4.5,0,5.1-0.2,9.1-0.3c43.1,0.3,81.5-0.2,119.3-0.2c-23.5-0.2-34.8-0.1-61.9-0.2c-11.2-0.1,4.9-0.1,9.1-0.1
			c84.9-0.3,193.2-0.4,301.9-0.5c11.4,0,25.8,0.3,31.7-0.1c16.9,0.1,27.4,0.1,42.3,0c0.7-0.1-8.2-0.1-7.5,0
			c12.6-0.6,44.6-0.1,66.4-0.4c-24.7-0.6-83.8-0.1-111.7-0.3c49.7-0.2,92.8,0,138.9-0.4c-0.6,0.2,6.9,0,4.5,0.3
			c25.4-0.1,47.1,0,67.9,0c14.7,0,29.8-0.4,43.8,0c90.3,0.2,166.8,0.2,241.5,0.9c-4.1,0.3-6.8-0.3-12.1,0c4.8,0.1,11.2,0.2,15.1,0.4
			c7.3-0.4,41.8-0.1,46.8,0.8c-11.2-0.1-19.8-0.4-33.2-0.4c2.6,0.2,11.2,0.1,12.1,0.4c-7.1,0.1-20.3-0.1-28.7-0.2
			c-2.1,0-0.1,0.2,1.5,0.2c-19.2,0-40.8-0.7-61.9-0.3c8.6,0.1,21.8-0.1,28.7,0.3c-2.3,0.1-11.6-0.1-18.1,0
			c7.9,0.3,13.2,0.2,22.6,0.3c-6.9-0.4,6.1,0,12.1-0.1c-15.2,0.3-32.6,0.4-22.6,1.1c21.7,0.1,24.8,0.1,39.2,0.1
			c-2.7-0.2-5.6,0-3-0.4c-2.5,0-5,0-7.5,0c8.1,0,13.1-0.5,24.2-0.5c-0.5,0.1-3.8,0.1-6,0.1c1,0.3,5.1,0.4,10.6,0.4
			c-0.3,0.2-7.2,0.1-6,0.4c1,0.3,3.2-0.1,6,0c0.7,0.3-6.9,0.1-7.6,0.3c6.4,0,13.8,0.2,25.7,0.2c-0.7,0.1-1.9,0.2-4.5,0.2
			c3.7,0.2,12.1,0,16.6,0c-0.8,0.4,7.2,0.3,7.5,0.7c-9.2-0.4-12,0.2-15.1-0.3c-6.3,0.6-21.3,0.2-34.7,0.4c7.1,0.1,17.3,0.1,25.7,0.2
			c-1,0.1-3.2,0.2-6,0.2c0.6,0.1,5.9,0.3,4.5,0c4.6,0.2-4.4,0.3-6,0.4c2,0,4,0,3,0.4c-6.8,0.1-20-0.5-28.7,0c-2-0.1-4.6-0.1-6-0.3
			c-5.3,0.1-7.9,0.4-16.6,0.3c9.1-0.2-3.5-0.2-4.5-0.5c-0.3,0.3-19.3,0.1-27.2,0.3c7.5,0.2,24.5,0.1,30.2,0.1
			c-1.1,0.1-2.8,0.1-4.5,0.2c14,0.1,30,0.3,43.8-0.1c0.5,0.3,6.9,0.2,10.6,0.4c5.5,0,4.4-0.4,10.6-0.4c0.9,0.6-2.2,0.7-12.1,0.8
			c11.2,0.1,29.2-0.2,33.2,0.9c-10-0.6-24-0.7-40.8-0.6c6,0.2,21.4-0.1,25.7,0.3c-4.4,0-4.3,0.2-7.6,0.3c3.7,0.3,1.5,0.1,7.6,0.4
			c-3,0.2-7.6-0.2-13.6-0.1c-2.4,0.3,9.8,0.2,1.5,0.3c-0.7,0.1,5.6,0.3,6,0.1c-0.4,0.1-5.9,0.5-4.5,0.8c-8.2,0.1-4.4-0.1-13.6,0.1
			c3.4,0.5,14-0.2,18.1,0.1c-1.5-0.2,6.6-0.6-1.5-0.6c4-0.4,8.2,0,12.1,0.3c-1.3,0.3-4.9-0.1-7.5,0c-3.8,0.7,18,1.6,6,1.9
			c-1,0.2,3.1,0.2,4.5,0.3c-7.5,0.4-16.5,0.1-25.7,0.4c3.1,0.1,16.5,0.1,19.6,0c4.9,0.1-1.4,0.3-4.5,0.2c2.9,0.6,23.9,0.1,28.7,0.2
			c1.4,0.2-11.4,0.4-13.6,0.7c-1.8-0.1-2.7-0.3-7.6-0.2c5.7-0.2-1.7-0.1,1.5-0.4c-6,0.4-11.2,0.3-18.1,0.7c7,0.4,16.3,0.2,25.7,0.7
			c8-0.2,11.8-0.2,19.6,0C1305,1255.3,1295.6,1255.5,1300.5,1255.8z M764.6,1258.1c-2.6,0.3-15.5-0.1-18.1,0.2
			c55.8,0.1,121.7,0.6,170.6,0c-6.1-0.1-16.1,0.1-19.6-0.1c1.8,0,3.4-0.1,4.5-0.2c-19.6,0.2-65.6-0.1-92.1,0.2c1.8,0,4.3,0,4.5-0.1
			C800.5,1258.1,766.2,1257.7,764.6,1258.1z M1273.3,1252.2c0-0.2,0-0.4,0-0.5c-23.8-0.1-54.7-0.3-80,0c23.1,0,40.4,0.1,55.9,0.3
			c-1.2,0.1,2.6,0.1-3,0.3C1258.6,1252.4,1261.8,1252.1,1273.3,1252.2z M1235.6,1247.4c-8.9,0-25.3-0.4-36.2-0.1
			c5.2,0,20.1-0.1,12.1,0.2C1217.8,1247.7,1229.2,1247.5,1235.6,1247.4z M311.7,1244.2c4.4,0.1,1.7,0.1,1.5,0.4
			c9.6,0.1,18.2,0.2,30.2,0.2C338.8,1244.2,323.6,1243.7,311.7,1244.2z M411.3,1244.4c-0.2-0.4-21.1-0.4-21.1,0
			C398,1244.5,401.6,1244.3,411.3,1244.4z M720.8,1243.9c-0.1,0.1-1.9,0.1-1.5-0.1c-5.1,0.3-12.8,0-19.6,0.2c3.2,0.1-2.2,0-3,0.2
			c-1.9-0.1-3.1,0-7.6,0c-12.2,0.2,28.8,0.1,31.7,0c0,0,1.2,0.1,1.5,0C717.6,1244.2,726.1,1243.9,720.8,1243.9z M803.8,1243.8
			c16.4-0.1-24.6-0.2-4.5-0.1c-21.5-0.1-57.3,0-75.5,0.3C751.7,1243.9,776.5,1244,803.8,1243.8z M772.1,1243.2
			c-7.3-0.2-8.5,0.1-15.1-0.2c-69.7,0.6-121,0-184.2,0.1C631.4,1244.1,706.5,1243.4,772.1,1243.2z M681.5,1243.1
			c4.6-0.1,13,0.1,15.1-0.1C692,1243.1,683.6,1242.9,681.5,1243.1z M874.7,1241.9c2.4,0.3,10.9,0.3,16.6,0.2
			C885.8,1242,882.4,1241.8,874.7,1241.9z M658.9,1258.6c-9,0.3-18.6,0.1-27.2,0.1c-6.4-0.1,13.3-0.1,3-0.2
			C639,1258.4,651.8,1258.5,658.9,1258.6z M1249.1,1258.1c3.3,0.2,2.2,0.2,4.5,0.5c-2.8-0.1-7.1-0.1-10.6-0.2
			C1245.5,1258.3,1248.4,1258.2,1249.1,1258.1C1250.9,1258,1250,1258.1,1249.1,1258.1z"/>
	</g>
</g>
</svg>
