<svg width="1351" height="2065" viewBox="0 0 1351 2065" fill="none" xmlns="http://www.w3.org/2000/svg">
<path d="M116 700.6C115.9 687.6 116.1 668.7 115.9 659.5C115.8 676 115.8 688.4 116 700.6ZM116 1405.5C115.7 1402.3 115.9 1383.8 115.8 1373.6C116.2 1376.8 116 1395.2 116 1405.5ZM115.9 892.2C116.1 896.9 116 911.9 115.9 917.3C115.6 911.7 115.9 899.1 115.9 892.2ZM115.6 383.5C115.7 385.2 115.7 402.3 115.6 404C115.6 393.4 115.5 390.2 115.6 383.5ZM115.6 543.2C115.4 541.5 115.6 530.4 115.5 524.9C115.4 525.3 115.4 529.1 115.4 531.7C115.2 530.7 115.4 520.5 115.3 515.7C115.4 517.4 115.4 519.8 115.5 522.5C115.7 515.6 115.5 499 115.6 488.3C115.8 502.7 115.7 528.3 115.6 543.2ZM115 864.8C115.2 868 115 880.7 115.1 887.6C114.9 884.5 115 871.8 115 864.8ZM114.8 123.4C114.7 130.7 114.5 132.6 114.4 141.6C114.2 137.7 114.4 122.4 114.8 123.4ZM99.0998 910.5C99.2998 915.2 99.0998 929.4 99.1998 937.9C98.9998 933.2 99.1998 918.9 99.0998 910.5ZM98.0998 328.7C97.8998 326.4 98.1998 318.2 98.0998 310.5C98.3998 314.3 98.1998 322.9 98.0998 328.7ZM96.9998 645.8C96.7998 640.4 96.9998 625.3 96.8998 616.1C97.1998 618.3 97.0998 640.2 96.9998 645.8ZM97.0998 728C96.7998 724 96.8998 708.7 96.7998 698.3C97.0998 702.3 96.8998 720.6 97.0998 728ZM112.6 80.1C112.6 85.8 112.5 92.2 112.8 98.3C112.6 108.4 112.5 122.3 112.4 137.1C112.4 138.9 112.5 139.4 112.5 141.7C112.7 140.3 113.1 145.4 113 137.1C113.5 144.3 113 160.4 112.7 159.9C112.6 166.9 112.8 168.2 112.8 173.6C113.1 164 113.5 159.9 113.3 146.2C113.7 146.3 113.8 147.2 114.3 143.9C114.3 156.5 114.5 156.3 114.9 162.1C114.8 167.5 114.7 173.3 114.7 180.4C114.7 183.4 114.9 184 114.9 187.2C115.2 188.9 115.1 180.9 115.3 182.6C114.8 295.3 115.2 410.2 114.9 527.1C115.6 557 114.9 572.1 115.1 606.9C115.4 602.9 115.2 584.6 115.4 577.2C115.6 661.7 115.3 751.6 115.7 819C115.3 852.3 115.3 899.4 115.3 937.6C115.3 945.5 115.5 937.4 115.6 942.2C115.6 969.2 115.5 969.8 115.5 994.7C114.9 991.5 115 971.6 115 953.6C114.9 971.9 114.7 1009.7 115 1010.6C115 1052 115.1 1083.5 115.1 1129.2C115.3 1134.3 115.2 1144.2 115.5 1145.2C115.5 1161.9 115.5 1179.7 115.7 1190.8C115.9 1187.6 115.7 1174.9 115.8 1168C116.2 1181.3 116.1 1217.3 115.5 1222.7C115.5 1264.4 115.4 1308.5 115.8 1341.3C114.9 1374.8 115.6 1417.3 115.4 1462.2C115.6 1432.7 115.6 1478.8 115.7 1482.7C115.8 1507.6 116 1532.8 116.1 1555.7C116.4 1598.8 116.1 1633.6 116.2 1662.9C116.5 1735.3 116.2 1808.2 115.8 1868.2C115.8 1874.7 116 1877.7 116 1884.2C115.9 1884.1 115.9 1881.4 115.9 1879.6C115.4 1898.2 114.4 1922.2 113.5 1900.1C113.1 1902.1 112.8 1912 112.4 1920.6C111.2 1906.6 109.7 1913.5 108.6 1893.2C107.7 1905.2 106.6 1893.1 105.6 1893.2C104.5 1893.3 103.2 1905.5 102.5 1881.8C98.8998 1873.9 100.3 1738.9 100.6 1669.6C100.1 1628.8 100.9 1586 100.7 1539.6C100.7 1532.8 100.5 1531.8 100.4 1525.9C100.7 1460.7 100.2 1402.7 100.2 1345.7C99.9998 1381.3 100.1 1398.2 99.9998 1439.2C99.8998 1456.2 99.8998 1431.8 99.8998 1425.5C99.5998 1297.2 99.4998 1133.6 99.3998 969.2C99.3998 952 99.6998 930.3 99.2998 921.3C99.3998 895.8 99.3998 880 99.2998 857.4C99.1998 856.4 99.1998 869.8 99.2998 868.8C98.6998 849.8 99.1998 801.4 98.8998 768.4C98.2998 805.8 98.7998 895.1 98.5998 937.2C98.3998 862.1 98.5998 796.9 98.1998 727.3C98.3998 728.2 98.1998 716.9 98.4998 720.5C98.3998 682.1 98.4998 649.3 98.4998 617.8C98.4998 595.5 98.0998 572.8 98.4998 551.6C98.6998 415.2 98.6998 299.6 99.3998 186.6C99.6998 192.8 99.0998 196.9 99.3998 204.9C99.4998 197.7 99.5998 187.9 99.7998 182.1C99.3998 171.1 99.6998 119 100.6 111.4C100.5 128.4 100.2 141.2 100.2 161.6C100.4 157.6 100.3 144.6 100.6 143.4C100.7 154.1 100.5 174 100.4 186.7C100.4 189.9 100.6 186.9 100.6 184.4C100.6 213.3 99.8998 246 100.3 277.9C100.4 264.9 100.2 245 100.6 234.5C100.7 238 100.5 252 100.6 261.9C100.9 249.9 100.8 241.9 100.9 227.7C100.5 238.2 100.9 218.4 100.8 209.4C101.1 232.3 101.2 258.7 101.9 243.6C102 210.8 102 206.1 102 184.3C101.8 188.4 102 192.7 101.6 188.9C101.6 192.7 101.6 196.5 101.6 200.3C101.6 188 101.1 180.5 101.1 163.8C101.2 164.5 101.2 169.5 101.2 172.9C101.5 171.5 101.6 165.2 101.6 156.9C101.8 157.3 101.7 167.8 102 166C102.3 164.5 101.9 161.1 102 156.9C102.3 155.8 102.1 167.4 102.3 168.3C102.3 158.7 102.5 147.4 102.5 129.5C102.6 130.5 102.7 132.4 102.7 136.3C102.9 130.8 102.7 118.1 102.7 111.2C103.1 112.4 103 100.2 103.4 99.8C103 113.8 103.6 118 103.1 122.6C103.7 132.2 103.3 154.8 103.5 175.1C103.6 164.4 103.6 149 103.7 136.3C103.8 137.8 103.9 141.2 103.9 145.4C104 144.5 104.2 136.5 103.9 138.6C104.1 131.6 104.2 145.3 104.3 147.7C104.3 144.7 104.3 141.7 104.7 143.1C104.8 153.4 104.2 173.3 104.7 186.4C104.6 189.4 104.6 193.3 104.4 195.5C104.5 203.5 104.8 207.4 104.7 220.6C104.5 206.8 104.5 225.9 104.2 227.5C104.5 227.9 104.3 256.7 104.5 268.6C104.7 257.2 104.6 231.5 104.6 223C104.7 224.7 104.7 227.2 104.8 229.8C104.9 208.7 105.1 184.4 104.7 163.6C105 162.9 104.9 153.1 105.1 147.6C105.1 139.2 104.7 141 104.7 131.6C105.3 130.2 105.4 134.9 105.5 149.9C105.6 133 105.3 105.8 106.4 99.7C105.8 114.8 105.7 136 105.8 161.3C106 152.2 105.7 128.9 106.1 122.5C106.1 129.1 106.3 128.9 106.4 133.9C106.7 128.4 106.5 131.7 106.8 122.5C107 127 106.6 133.9 106.7 143C107 146.6 106.9 128.2 107 140.7C107.1 141.7 107.3 132.2 107.1 131.6C107.2 132.3 107.6 140.4 107.9 138.4C108 150.7 107.8 145 108 158.9C108.5 153.8 107.8 137.7 108.1 131.5C107.9 133.7 107.5 121.5 107.5 133.8C107.1 127.8 107.5 121.4 107.8 115.6C108.1 117.5 107.7 122.9 107.8 127C108.5 132.8 109.4 99.8 109.7 117.9C109.9 119.5 109.9 113.2 110 111.1C110.4 122.4 110.1 136.1 110.4 149.9C110.5 145.2 110.5 124.9 110.4 120.2C110.5 112.9 110.7 122.4 110.6 127C111.2 122.6 110.7 90.9 110.8 83.7C111 81.6 111.2 100.9 111.5 104.2C111.4 106.9 111.2 108.3 111.3 115.6C111.1 107 111.2 118.2 110.9 113.3C111.3 122.4 111.2 130.3 111.6 140.7C112 130.1 111.8 116.1 112.3 101.9C112.1 89.9 112.1 84 112.3 72.2C112.2 73.2 112.4 87.4 112.6 80.1ZM115 889.9C115.3 893.8 114.9 913.3 115.2 917.3C115.3 832.9 115.8 733.4 115.2 659.5C115.1 668.7 115.3 683.8 115.1 689.2C115.1 686.5 115 684 114.9 682.4C115.1 712.1 114.8 781.6 115.1 821.6C115.1 818.9 115.1 815.1 115 814.8C114.9 835.6 114.6 887.5 115 889.9ZM109.1 121.1C108.9 121.1 108.7 121.1 108.6 121.1C108.5 157.1 108.3 203.7 108.6 242C108.6 207.1 108.7 181 108.9 157.6C109 159.4 109 153.6 109.2 162.2C109.2 143.3 108.9 138.5 109.1 121.1ZM104.3 178.2C104.3 191.7 103.9 216.5 104.2 233C104.2 225.2 104.1 202.7 104.4 214.7C104.6 205 104.4 187.7 104.3 178.2ZM101 1574.3C101.1 1567.7 101.1 1571.7 101.4 1572C101.5 1557.5 101.6 1544.4 101.6 1526.4C101.1 1533.3 100.5 1556.4 101 1574.3ZM101.2 1423.8C100.8 1424 100.8 1455.7 101.2 1455.7C101.4 1443.8 101.2 1438.4 101.2 1423.8ZM100.8 956.1C100.9 956.2 100.9 959 100.7 958.4C101 966.1 100.7 977.7 100.9 988C101 983.2 100.9 991.3 101.1 992.6C101 995.5 101.1 997.3 101.1 1004C101.3 1022.5 101.2 960.5 101.1 956.1C101.1 956.1 101.2 954.2 101.1 953.8C101.1 960.9 100.8 948 100.8 956.1ZM100.7 830.6C100.6 805.7 100.5 867.8 100.6 837.4C100.5 869.9 100.6 924 100.9 951.5C100.7 909.3 100.8 871.9 100.7 830.6ZM100.1 878.5C99.8998 889.6 100.2 891.3 99.8998 901.3C100.5 1006.6 99.8998 1084.1 99.9998 1179.6C100.9 1091.2 100.3 977.7 100.1 878.5ZM99.9998 1015.4C99.8998 1008.5 100.1 995.7 99.8998 992.6C99.9998 999.5 99.7998 1012.2 99.9998 1015.4ZM98.7998 723.4C99.0998 719.7 99.0998 706.9 98.9998 698.3C98.8998 706.8 98.6998 711.9 98.7998 723.4ZM115.4 1049.6C115.7 1063.2 115.5 1077.7 115.5 1090.7C115.4 1100.3 115.4 1070.5 115.3 1086.1C115.2 1079.6 115.4 1060.3 115.4 1049.6ZM115 157.6C115.2 152.7 115.2 154.3 115.5 150.8C115.4 155.1 115.4 161.6 115.3 166.8C115.2 163.2 115.1 158.8 115 157.6C115 156.4 114.9 155 115 157.6Z" fill="#FF0000"/>
<path d="M1255.1 710C1255 696.8 1255.2 677.6 1255 668.3C1254.9 685 1254.9 697.6 1255.1 710ZM1255.1 1425.4C1254.8 1422.1 1255 1403.4 1254.9 1393C1255.3 1396.3 1255.1 1415 1255.1 1425.4ZM1255 904.5C1255.2 909.3 1255.1 924.5 1255 930C1254.7 924.3 1254.9 911.4 1255 904.5ZM1254.7 388.1C1254.8 389.9 1254.8 407.2 1254.7 408.9C1254.7 398.2 1254.6 395 1254.7 388.1ZM1254.7 550.2C1254.5 548.5 1254.7 537.2 1254.6 531.7C1254.5 532.1 1254.5 535.9 1254.5 538.6C1254.3 537.6 1254.5 527.2 1254.4 522.4C1254.5 524.1 1254.5 526.6 1254.6 529.4C1254.8 522.4 1254.6 505.5 1254.7 494.7C1254.9 509.1 1254.8 535.1 1254.7 550.2ZM1254.1 876.7C1254.3 879.9 1254.1 892.8 1254.2 899.8C1254 896.6 1254.1 883.7 1254.1 876.7ZM1253.9 124.2C1253.8 131.6 1253.6 133.6 1253.5 142.7C1253.3 138.6 1253.5 123.1 1253.9 124.2ZM1238.2 923C1238.4 927.7 1238.2 942.2 1238.3 950.8C1238.1 946 1238.3 931.5 1238.2 923ZM1237.2 332.5C1237 330.1 1237.3 321.9 1237.2 314C1237.5 317.9 1237.3 326.6 1237.2 332.5ZM1236.1 654.4C1235.9 648.9 1236.1 633.6 1236 624.3C1236.3 626.5 1236.2 648.7 1236.1 654.4ZM1236.2 737.8C1235.9 733.7 1236 718.2 1235.9 707.7C1236.2 711.7 1236 730.3 1236.2 737.8ZM1251.7 80.2C1251.7 86 1251.6 92.5 1251.9 98.7C1251.7 109 1251.6 123 1251.5 138.1C1251.5 140 1251.6 140.4 1251.6 142.7C1251.8 141.3 1252.2 146.5 1252.1 138.1C1252.6 145.4 1252.1 161.8 1251.8 161.3C1251.7 168.4 1251.9 169.7 1251.9 175.2C1252.2 165.5 1252.6 161.3 1252.4 147.4C1252.8 147.5 1252.9 148.5 1253.4 145.1C1253.4 157.9 1253.6 157.7 1254 163.6C1253.9 169 1253.8 175 1253.8 182.1C1253.8 185.1 1254 185.7 1254 189C1254.3 190.7 1254.2 182.7 1254.4 184.4C1253.9 298.8 1254.3 415.4 1254 534C1254.7 564.3 1254 579.7 1254.2 615C1254.5 611 1254.3 592.4 1254.5 584.9C1254.7 670.7 1254.4 761.9 1254.8 830.3C1254.4 864.1 1254.4 911.9 1254.4 950.7C1254.4 958.8 1254.6 950.5 1254.7 955.3C1254.7 982.7 1254.6 983.3 1254.6 1008.5C1254 1005.3 1254.1 985 1254.1 966.8C1254 985.3 1253.8 1023.7 1254.1 1024.7C1254.1 1066.8 1254.2 1098.7 1254.2 1145.1C1254.4 1150.2 1254.3 1160.3 1254.6 1161.3C1254.6 1178.3 1254.6 1196.3 1254.8 1207.6C1255 1204.4 1254.8 1191.5 1254.9 1184.5C1255.3 1198 1255.2 1234.5 1254.6 1240.1C1254.6 1282.4 1254.5 1327.1 1254.9 1360.5C1254 1394.5 1254.7 1437.7 1254.5 1483.2C1254.7 1453.2 1254.7 1500.1 1254.8 1504C1254.9 1529.2 1255.1 1554.9 1255.2 1578.1C1255.5 1621.9 1255.2 1657.2 1255.3 1686.9C1255.6 1760.3 1255.3 1834.4 1254.9 1895.3C1254.9 1901.8 1255.1 1904.9 1255.1 1911.5C1255 1911.4 1255 1908.7 1255 1906.9C1254.5 1925.8 1253.5 1950.1 1252.6 1927.8C1252.2 1929.8 1251.9 1939.9 1251.5 1948.6C1250.3 1934.4 1248.8 1941.4 1247.7 1920.8C1246.8 1933 1245.7 1920.7 1244.7 1920.8C1243.6 1920.9 1242.3 1933.3 1241.6 1909.2C1238 1901.2 1239.4 1764.2 1239.7 1693.9C1239.2 1652.5 1240 1609.1 1239.8 1561.9C1239.8 1555 1239.6 1554 1239.5 1548C1239.8 1481.9 1239.3 1422.9 1239.3 1365.1C1239.1 1401.2 1239.2 1418.4 1239.1 1460C1239 1477.2 1239 1452.5 1239 1446.1C1238.7 1315.9 1238.6 1149.8 1238.5 983C1238.5 965.5 1238.8 943.5 1238.4 934.4C1238.5 908.5 1238.5 892.4 1238.4 869.6C1238.3 868.6 1238.3 882.2 1238.4 881.2C1237.8 861.9 1238.3 812.7 1238 779.3C1237.4 817.3 1237.9 907.9 1237.7 950.6C1237.5 874.4 1237.7 808.2 1237.3 737.6C1237.5 738.5 1237.3 727 1237.6 730.6C1237.5 691.7 1237.6 658.4 1237.6 626.4C1237.6 603.8 1237.2 580.7 1237.6 559.2C1237.8 420.8 1237.8 303.4 1238.5 188.7C1238.8 195 1238.2 199.2 1238.5 207.2C1238.6 199.9 1238.7 190 1238.9 184C1238.5 172.8 1238.8 119.9 1239.7 112.2C1239.6 129.4 1239.3 142.5 1239.3 163.1C1239.5 159.1 1239.4 145.9 1239.7 144.6C1239.8 155.5 1239.6 175.7 1239.5 188.6C1239.5 191.8 1239.7 188.8 1239.7 186.3C1239.7 215.7 1239 248.8 1239.4 281.2C1239.5 268 1239.3 247.8 1239.7 237.2C1239.8 240.7 1239.6 255 1239.7 265C1240 252.8 1239.9 244.7 1240 230.3C1239.6 241 1240 220.9 1239.9 211.8C1240.2 235.1 1240.3 261.8 1241 246.5C1241.1 213.2 1241.1 208.5 1241.1 186.3C1240.9 190.4 1241.1 194.8 1240.7 190.9C1240.7 194.8 1240.7 198.6 1240.7 202.5C1240.7 190 1240.2 182.4 1240.2 165.5C1240.3 166.2 1240.3 171.3 1240.3 174.8C1240.6 173.3 1240.7 166.9 1240.7 158.6C1240.9 159 1240.8 169.6 1241.1 167.9C1241.4 166.4 1241 162.9 1241.1 158.6C1241.4 157.5 1241.2 169.2 1241.4 170.2C1241.4 160.4 1241.6 149 1241.6 130.8C1241.7 131.8 1241.8 133.8 1241.8 137.7C1242 132.1 1241.8 119.2 1241.8 112.2C1242.2 113.5 1242.1 101.1 1242.5 100.6C1242.1 114.8 1242.7 119 1242.2 123.7C1242.8 133.4 1242.4 156.4 1242.6 177C1242.7 166.2 1242.7 150.5 1242.8 137.6C1242.9 139.1 1243 142.6 1243 146.9C1243.1 146 1243.3 137.9 1243 139.9C1243.2 132.8 1243.3 146.7 1243.4 149.2C1243.4 146.1 1243.4 143.1 1243.8 144.6C1243.9 155 1243.3 175.3 1243.8 188.6C1243.7 191.7 1243.7 195.6 1243.5 197.9C1243.6 206 1243.9 210 1243.8 223.4C1243.6 209.4 1243.6 228.7 1243.3 230.4C1243.6 230.8 1243.4 260 1243.6 272.1C1243.8 260.6 1243.7 234.5 1243.7 225.8C1243.8 227.5 1243.8 230 1243.9 232.8C1244 211.4 1244.2 186.7 1243.8 165.6C1244.1 164.9 1244 155 1244.2 149.4C1244.2 140.9 1243.8 142.7 1243.8 133.2C1244.4 131.8 1244.5 136.6 1244.6 151.7C1244.7 134.5 1244.4 107 1245.5 100.8C1244.9 116.1 1244.8 137.6 1244.9 163.3C1245.1 154 1244.8 130.5 1245.2 123.9C1245.2 130.6 1245.4 130.4 1245.5 135.5C1245.8 129.9 1245.6 133.2 1245.9 123.9C1246.1 128.4 1245.7 135.5 1245.8 144.7C1246.1 148.4 1246 129.7 1246.1 142.4C1246.2 143.4 1246.4 133.8 1246.2 133.1C1246.3 133.8 1246.7 142.1 1247 140C1247.1 152.5 1246.9 146.7 1247.1 160.8C1247.6 155.6 1246.9 139.3 1247.2 133C1247 135.2 1246.6 122.8 1246.6 135.3C1246.2 129.2 1246.6 122.7 1246.9 116.8C1247.2 118.8 1246.8 124.2 1246.9 128.4C1247.6 134.3 1248.5 100.8 1248.8 119.1C1249 120.7 1249 114.3 1249.1 112.1C1249.5 123.6 1249.2 137.5 1249.5 151.5C1249.6 146.7 1249.6 126.1 1249.5 121.4C1249.6 113.9 1249.8 123.6 1249.7 128.3C1250.3 123.8 1249.8 91.6 1249.9 84.3C1250.1 82.1 1250.3 101.8 1250.6 105.1C1250.5 107.9 1250.3 109.3 1250.4 116.7C1250.2 108 1250.3 119.4 1250 114.4C1250.4 123.6 1250.3 131.6 1250.7 142.2C1251.1 131.5 1250.9 117.2 1251.4 102.8C1251.2 90.6 1251.2 84.7 1251.4 72.7C1251.3 73.2 1251.4 87.6 1251.7 80.2ZM1254.1 902.1C1254.4 906.1 1254 925.9 1254.3 929.9C1254.4 844.2 1254.9 743.2 1254.3 668.3C1254.2 677.6 1254.4 692.9 1254.2 698.4C1254.2 695.7 1254.1 693.1 1254 691.4C1254.2 721.5 1253.9 792.1 1254.2 832.6C1254.2 829.9 1254.2 826 1254.1 825.6C1254 847 1253.7 899.7 1254.1 902.1ZM1248.2 121.8C1248 121.8 1247.8 121.8 1247.7 121.8C1247.6 158.3 1247.4 205.6 1247.7 244.5C1247.7 209 1247.8 182.6 1248 158.8C1248.1 160.6 1248.1 154.8 1248.3 163.4C1248.3 144.3 1248 139.5 1248.2 121.8ZM1243.4 179.7C1243.4 193.4 1243 218.6 1243.3 235.3C1243.3 227.4 1243.2 204.5 1243.5 216.8C1243.7 206.9 1243.5 189.4 1243.4 179.7ZM1240.1 1596.8C1240.2 1590.1 1240.2 1594.2 1240.5 1594.5C1240.6 1579.8 1240.7 1566.5 1240.7 1548.2C1240.2 1555.1 1239.6 1578.5 1240.1 1596.8ZM1240.3 1444C1239.9 1444.2 1239.9 1476.3 1240.3 1476.4C1240.5 1464.3 1240.3 1458.9 1240.3 1444ZM1239.9 969.3C1240 969.4 1240 972.3 1239.8 971.6C1240.1 979.5 1239.8 991.2 1240 1001.7C1240.1 996.8 1240 1005 1240.2 1006.3C1240.1 1009.3 1240.2 1011.1 1240.2 1017.9C1240.4 1036.7 1240.3 973.8 1240.2 969.3C1240.2 969.3 1240.3 967.4 1240.2 967C1240.2 974.2 1239.9 961.1 1239.9 969.3ZM1239.8 841.9C1239.7 816.7 1239.6 879.7 1239.7 848.8C1239.6 881.8 1239.7 936.7 1240 964.6C1239.8 921.9 1239.9 883.8 1239.8 841.9ZM1239.2 890.6C1239 901.8 1239.3 903.6 1239 913.8C1239.6 1020.7 1239 1099.3 1239.1 1196.3C1240 1106.4 1239.4 991.2 1239.2 890.6ZM1239.1 1029.5C1239 1022.5 1239.2 1009.5 1239 1006.4C1239.1 1013.4 1238.9 1026.3 1239.1 1029.5ZM1237.9 733.1C1238.2 729.3 1238.2 716.4 1238.1 707.6C1238 716.2 1237.8 721.4 1237.9 733.1ZM1254.5 1064.2C1254.8 1078 1254.6 1092.8 1254.6 1105.9C1254.5 1115.7 1254.5 1085.4 1254.4 1101.3C1254.3 1094.6 1254.5 1075.1 1254.5 1064.2ZM1254.1 158.9C1254.3 153.9 1254.3 155.6 1254.6 152C1254.5 156.4 1254.5 162.9 1254.4 168.2C1254.3 164.5 1254.2 160.1 1254.1 158.9C1254.1 157.6 1254 156.3 1254.1 158.9Z" fill="#FF0000"/>
<path d="M889.6 128.2C898.5 128.1 911.4 128.3 917.7 128.1C906.5 128 898 128 889.6 128.2ZM406.7 128.2C408.9 127.9 421.5 128.1 428.6 128C426.4 128.4 413.8 128.2 406.7 128.2ZM758.4 128C755.2 128.2 744.9 128.1 741.2 128C745 127.8 753.7 128 758.4 128ZM1106.9 127.8C1105.7 127.9 1094 127.9 1092.8 127.8C1100.1 127.8 1102.2 127.7 1106.9 127.8ZM997.5 127.8C998.7 127.6 1006.3 127.8 1010 127.7C1009.7 127.6 1007.1 127.6 1005.3 127.6C1006 127.4 1013 127.6 1016.2 127.5C1015.1 127.6 1013.4 127.6 1011.5 127.7C1016.2 127.9 1027.6 127.7 1034.9 127.8C1025.2 128 1007.7 127.9 997.5 127.8ZM777.1 127.2C774.9 127.4 766.2 127.2 761.5 127.3C763.7 127.1 772.4 127.2 777.1 127.2ZM1285 127C1280 126.9 1278.7 126.7 1272.5 126.6C1275.3 126.4 1285.7 126.6 1285 127ZM745.9 111.3C742.7 111.5 732.9 111.3 727.1 111.4C730.3 111.2 740.1 111.4 745.9 111.3ZM1144.4 110.3C1146 110.1 1151.6 110.4 1156.9 110.3C1154.3 110.6 1148.4 110.4 1144.4 110.3ZM927.2 109.2C930.9 109 941.2 109.2 947.5 109.1C946 109.4 931 109.3 927.2 109.2ZM870.9 109.3C873.6 109 884.1 109.1 891.2 109C888.5 109.3 875.9 109.1 870.9 109.3ZM1314.7 124.8C1310.8 124.8 1306.4 124.7 1302.2 125C1295.3 124.8 1285.8 124.7 1275.6 124.6C1274.3 124.6 1274 124.7 1272.5 124.7C1273.4 124.9 1270 125.3 1275.6 125.2C1270.7 125.7 1259.6 125.2 1260 124.9C1255.2 124.8 1254.3 125 1250.6 125C1257.2 125.3 1260 125.7 1269.3 125.5C1269.2 125.9 1268.6 126 1270.9 126.5C1262.2 126.5 1262.4 126.7 1258.4 127.1C1254.7 127 1250.7 126.9 1245.9 126.9C1243.8 126.9 1243.4 127.1 1241.2 127.1C1240 127.4 1245.5 127.3 1244.3 127.5C1167.1 127 1088.4 127.4 1008.3 127.1C987.8 127.8 977.5 127.1 953.6 127.3C956.3 127.6 968.9 127.4 973.9 127.6C916 127.8 854.4 127.5 808.2 127.9C785.4 127.5 753.1 127.5 726.9 127.5C721.5 127.5 727 127.7 723.8 127.8C705.3 127.8 704.9 127.7 687.9 127.7C690.1 127.1 703.8 127.2 716 127.2C703.5 127.1 677.6 126.9 676.9 127.2C648.5 127.2 626.9 127.3 595.6 127.3C592.1 127.5 585.3 127.4 584.7 127.7C573.2 127.7 561.1 127.7 553.4 127.9C555.6 128.1 564.3 127.9 569 128C559.9 128.4 535.2 128.3 531.5 127.7C502.9 127.7 472.8 127.6 450.2 128C427.2 127.1 398.1 127.8 367.4 127.6C387.6 127.8 356 127.8 353.3 127.9C336.3 128 319 128.2 303.3 128.3C273.8 128.6 249.9 128.3 229.8 128.4C180.2 128.7 130.3 128.4 89.2002 128C84.8002 128 82.7002 128.2 78.3002 128.2C78.3002 128.1 80.2002 128.1 81.4002 128.1C68.6002 127.6 52.2002 126.6 67.3002 125.7C65.9002 125.3 59.1002 125 53.2002 124.6C62.8002 123.4 58.0002 121.9 72.0002 120.8C63.8002 119.9 72.1002 118.8 72.0002 117.8C71.9002 116.7 63.6002 115.4 79.8002 114.7C85.2002 111.1 177.7 112.5 225.1 112.8C253.1 112.3 282.3 113.1 314.2 112.9C318.9 112.9 319.5 112.7 323.6 112.6C368.2 112.9 408 112.4 447.1 112.4C422.7 112.2 411.1 112.3 383 112.2C371.4 112.1 388.1 112.1 392.4 112.1C480.3 111.8 592.4 111.7 705 111.6C716.8 111.6 731.7 111.9 737.8 111.5C755.3 111.6 766.1 111.6 781.6 111.5C782.3 111.4 773.1 111.4 773.8 111.5C786.8 110.9 820 111.4 842.6 111.1C817 110.5 755.8 111 727 110.8C778.5 110.6 823.1 110.8 870.8 110.4C870.2 110.6 877.9 110.4 875.5 110.7C901.8 110.6 924.2 110.7 945.8 110.7C961.1 110.7 976.6 110.3 991.1 110.7C1084.5 110.9 1163.8 110.9 1241.1 111.6C1236.9 111.9 1234 111.3 1228.6 111.6C1233.5 111.7 1240.2 111.8 1244.2 112C1251.7 111.6 1287.5 111.9 1292.6 112.8C1281 112.7 1272.2 112.4 1258.2 112.4C1260.9 112.6 1269.8 112.5 1270.7 112.8C1263.3 112.9 1249.7 112.7 1241 112.6C1238.8 112.6 1240.9 112.8 1242.6 112.8C1222.8 112.8 1200.4 112.1 1178.5 112.5C1187.4 112.6 1201.1 112.4 1208.2 112.8C1205.8 112.9 1196.2 112.7 1189.4 112.8C1197.6 113.1 1203.1 113 1212.8 113.1C1205.6 112.7 1219.2 113.1 1225.3 113C1209.6 113.3 1191.5 113.4 1201.9 114.1C1224.4 114.2 1227.6 114.2 1242.5 114.2C1239.7 114 1236.7 114.2 1239.4 113.8C1236.8 113.8 1234.2 113.8 1231.6 113.8C1240 113.8 1245.2 113.3 1256.6 113.3C1256.1 113.4 1252.7 113.4 1250.4 113.4C1251.4 113.7 1255.7 113.8 1261.3 113.8C1261 114 1253.9 113.9 1255 114.2C1256 114.5 1258.3 114.1 1261.3 114.2C1262.1 114.5 1254.1 114.3 1253.5 114.5C1260.1 114.5 1267.8 114.7 1280.1 114.7C1279.4 114.8 1278.1 114.9 1275.4 114.9C1279.2 115.1 1287.9 114.9 1292.6 114.9C1291.7 115.3 1300.1 115.2 1300.4 115.6C1290.8 115.2 1288 115.8 1284.8 115.3C1278.3 115.9 1262.7 115.5 1248.9 115.7C1256.2 115.8 1266.8 115.8 1275.5 115.9C1274.5 116 1272.2 116.1 1269.2 116.1C1269.8 116.2 1275.3 116.4 1273.9 116.1C1278.7 116.3 1269.3 116.4 1267.7 116.5C1269.8 116.5 1271.8 116.5 1270.8 116.9C1263.7 117 1250.1 116.4 1241.1 116.9C1239 116.8 1236.4 116.8 1234.8 116.6C1229.3 116.7 1226.7 117 1217.6 116.9C1227 116.7 1214 116.7 1212.9 116.4C1212.6 116.7 1192.9 116.5 1184.8 116.7C1192.6 116.9 1210.2 116.8 1216.1 116.8C1215 116.9 1213.3 116.9 1211.4 117C1225.8 117.1 1242.5 117.3 1256.7 116.9C1257.2 117.2 1263.9 117.1 1267.6 117.3C1273.3 117.3 1272.1 116.9 1278.5 116.9C1279.5 117.5 1276.2 117.6 1266 117.7C1277.6 117.8 1296.2 117.5 1300.4 118.6C1290.1 118 1275.6 117.9 1258.2 118C1264.5 118.2 1280.4 117.9 1284.8 118.3C1280.3 118.3 1280.4 118.5 1277 118.6C1280.8 118.9 1278.5 118.7 1284.8 119C1281.7 119.2 1277 118.8 1270.7 118.9C1268.2 119.2 1280.8 119.1 1272.3 119.2C1271.6 119.3 1278.1 119.5 1278.5 119.3C1278 119.4 1272.4 119.8 1273.8 120.1C1265.4 120.2 1269.3 120 1259.7 120.2C1263.2 120.7 1274.2 120 1278.5 120.3C1277 120.1 1285.4 119.7 1276.9 119.7C1281 119.3 1285.4 119.7 1289.4 120C1288.1 120.3 1284.4 119.9 1281.6 120C1277.6 120.7 1300.2 121.6 1287.8 121.9C1286.7 122.1 1291 122.1 1292.5 122.2C1284.7 122.6 1275.4 122.3 1265.9 122.6C1269.1 122.7 1283 122.7 1286.2 122.6C1291.2 122.7 1284.7 122.9 1281.5 122.8C1284.5 123.4 1306.2 122.9 1311.2 123C1312.7 123.2 1299.4 123.4 1297.1 123.7C1295.2 123.6 1294.3 123.4 1289.3 123.5C1295.2 123.3 1287.5 123.4 1290.9 123.1C1284.7 123.5 1279.3 123.4 1272.2 123.8C1279.4 124.2 1289.1 124 1298.8 124.5C1307 124.3 1311 124.3 1319.1 124.5C1319.4 124.4 1309.7 124.5 1314.7 124.8ZM759.9 127.2C757.2 127.5 743.8 127.1 741.2 127.4C799 127.5 867.2 128 917.8 127.4C911.5 127.3 901.2 127.5 897.5 127.3C899.3 127.3 901 127.2 902.2 127.1C881.9 127.3 834.3 127 806.9 127.3C808.7 127.3 811.3 127.3 811.6 127.2C797.2 127.1 761.6 126.8 759.9 127.2ZM1286.6 121.3C1286.6 121.1 1286.6 120.9 1286.6 120.8C1262 120.7 1230 120.5 1203.8 120.8C1227.7 120.8 1245.6 120.9 1261.6 121.1C1260.4 121.2 1264.3 121.2 1258.5 121.4C1271.4 121.4 1274.7 121.1 1286.6 121.3ZM1247.5 116.5C1238.3 116.5 1221.3 116.1 1210 116.4C1215.3 116.4 1230.8 116.3 1222.5 116.6C1229.1 116.8 1241 116.6 1247.5 116.5ZM291.1 113.2C295.7 113.3 292.9 113.3 292.7 113.6C302.6 113.7 311.6 113.8 323.9 113.8C319.2 113.3 303.4 112.7 291.1 113.2ZM394.2 113.4C394 113 372.4 113 372.3 113.4C380.5 113.6 384.2 113.4 394.2 113.4ZM714.6 113C714.5 113.1 712.6 113.1 713 112.9C707.7 113.2 699.8 112.9 692.7 113.1C696 113.2 690.5 113.1 689.6 113.3C687.6 113.2 686.4 113.3 681.8 113.3C669.1 113.5 711.6 113.4 714.6 113.3C714.6 113.3 715.9 113.4 716.2 113.3C711.3 113.3 720.2 113 714.6 113ZM800.6 112.9C817.6 112.8 775.1 112.7 795.9 112.8C773.6 112.7 736.6 112.8 717.8 113.1C746.6 112.9 772.3 113 800.6 112.9ZM767.8 112.3C760.2 112.1 759.1 112.4 752.2 112.1C680.1 112.7 627 112.1 561.5 112.2C622.1 113.1 699.8 112.5 767.8 112.3ZM674 112.2C678.7 112.1 687.5 112.3 689.6 112.1C684.9 112.1 676.2 112 674 112.2ZM874 111C876.5 111.3 885.3 111.3 891.2 111.2C885.4 111.1 881.9 110.9 874 111ZM650.5 127.6C641.2 127.9 631.2 127.7 622.4 127.7C615.8 127.6 636.2 127.6 625.5 127.5C630 127.4 643.2 127.6 650.5 127.6ZM1261.6 127.2C1265 127.4 1263.8 127.4 1266.3 127.7C1263.3 127.6 1258.9 127.6 1255.4 127.5C1257.8 127.4 1260.8 127.3 1261.6 127.2C1262.4 127.2 1263.4 127.1 1261.6 127.2Z" fill="#FF0000"/>
<path d="M861.3 1912.1C869.9 1912 882.4 1912.2 888.5 1912C877.5 1911.9 869.3 1911.9 861.3 1912.1ZM394.8 1912.1C396.9 1911.8 409.1 1912 415.9 1911.9C413.8 1912.3 401.6 1912 394.8 1912.1ZM734.4 1911.9C731.3 1912.1 721.4 1912 717.8 1911.9C721.5 1911.7 729.9 1911.9 734.4 1911.9ZM1071.1 1911.7C1069.9 1911.8 1058.7 1911.8 1057.5 1911.7C1064.5 1911.7 1066.6 1911.5 1071.1 1911.7ZM965.4 1911.7C966.5 1911.5 973.9 1911.7 977.5 1911.6C977.2 1911.5 974.7 1911.5 973 1911.5C973.6 1911.3 980.4 1911.5 983.6 1911.4C982.5 1911.5 980.9 1911.5 979.1 1911.6C983.7 1911.8 994.7 1911.6 1001.7 1911.7C992.2 1911.8 975.3 1911.7 965.4 1911.7ZM752.6 1911C750.5 1911.2 742.1 1911 737.5 1911.1C739.5 1910.9 748 1911.1 752.6 1911ZM1243.2 1910.9C1238.4 1910.8 1237.1 1910.6 1231.1 1910.5C1233.8 1910.2 1243.9 1910.4 1243.2 1910.9ZM722.4 1895.2C719.3 1895.4 709.9 1895.2 704.3 1895.3C707.3 1895.1 716.8 1895.2 722.4 1895.2ZM1107.3 1894.2C1108.8 1894 1114.2 1894.3 1119.4 1894.2C1116.9 1894.5 1111.2 1894.3 1107.3 1894.2ZM897.5 1893.1C901.1 1892.9 911 1893.1 917.1 1893C915.7 1893.3 901.2 1893.2 897.5 1893.1ZM843.1 1893.2C845.7 1892.9 855.9 1893 862.7 1892.9C860.1 1893.2 848 1893 843.1 1893.2ZM1271.9 1908.7C1268.1 1908.7 1263.9 1908.6 1259.8 1908.9C1253.1 1908.7 1244 1908.6 1234.1 1908.5C1232.9 1908.5 1232.6 1908.6 1231.1 1908.6C1232 1908.8 1228.7 1909.2 1234.1 1909.1C1229.4 1909.6 1218.7 1909.1 1219 1908.8C1214.4 1908.7 1213.5 1908.9 1209.9 1908.9C1216.2 1909.2 1219 1909.6 1228 1909.4C1227.9 1909.8 1227.3 1909.9 1229.5 1910.4C1221.1 1910.4 1221.3 1910.6 1217.4 1911C1213.9 1910.9 1210 1910.8 1205.3 1910.8C1203.3 1910.8 1202.9 1911 1200.8 1911C1199.7 1911.3 1204.9 1911.2 1203.8 1911.4C1129.2 1910.9 1053.2 1911.3 975.8 1911C956 1911.7 946 1911 923 1911.2C925.6 1911.5 937.8 1911.3 942.6 1911.5C886.7 1911.7 827.2 1911.4 782.6 1911.8C760.6 1911.4 729.4 1911.4 704.1 1911.4C698.8 1911.4 704.2 1911.6 701.1 1911.7C683.3 1911.7 682.8 1911.6 666.4 1911.6C668.5 1911 681.7 1911.1 693.6 1911.1C681.5 1911 656.5 1910.8 655.9 1911.1C628.5 1911.1 607.6 1911.2 577.4 1911.2C574 1911.4 567.5 1911.3 566.8 1911.6C555.7 1911.6 544 1911.6 536.6 1911.8C538.7 1912 547.1 1911.8 551.7 1911.9C542.9 1912.3 519.1 1912.2 515.5 1911.6C487.9 1911.6 458.8 1911.5 437 1911.9C414.8 1911 386.7 1911.7 357 1911.5C376.5 1911.7 346 1911.7 343.4 1911.8C326.9 1911.9 310.2 1912.1 295.1 1912.2C266.6 1912.5 243.5 1912.2 224.1 1912.3C176.2 1912.6 128 1912.3 88.2004 1911.9C83.9004 1911.9 81.9004 1912.1 77.6004 1912.1C77.6004 1912 79.5004 1912 80.6004 1912C68.3004 1911.5 52.4004 1910.5 67.0004 1909.6C65.7004 1909.2 59.1004 1908.9 53.4004 1908.5C62.6004 1907.3 58.1004 1905.8 71.5004 1904.7C63.6004 1903.8 71.6004 1902.7 71.5004 1901.7C71.4004 1900.6 63.4004 1899.3 79.1004 1898.6C84.3004 1895 173.6 1896.4 219.5 1896.7C246.5 1896.2 274.8 1897 305.6 1896.8C310.1 1896.8 310.7 1896.6 314.7 1896.5C357.8 1896.8 396.2 1896.3 434 1896.3C410.5 1896.1 399.2 1896.2 372.1 1896.1C360.9 1896 377 1896 381.2 1896C466.1 1895.7 574.4 1895.6 683.1 1895.5C694.5 1895.5 708.9 1895.8 714.8 1895.4C731.7 1895.5 742.2 1895.5 757.1 1895.4C757.8 1895.3 748.9 1895.3 749.6 1895.4C762.2 1894.8 794.2 1895.3 816 1895C791.3 1894.4 732.2 1894.9 704.3 1894.7C754 1894.5 797.2 1894.7 843.2 1894.3C842.6 1894.5 850.1 1894.3 847.7 1894.6C873.1 1894.5 894.8 1894.6 915.6 1894.6C930.3 1894.6 945.4 1894.2 959.4 1894.6C1049.7 1894.8 1126.2 1894.8 1201 1895.5C1196.9 1895.8 1194.2 1895.2 1188.9 1895.5C1193.7 1895.6 1200.1 1895.7 1204 1895.9C1211.3 1895.5 1245.8 1895.8 1250.8 1896.7C1239.6 1896.6 1231 1896.3 1217.6 1896.3C1220.2 1896.5 1228.8 1896.4 1229.7 1896.7C1222.6 1896.8 1209.4 1896.6 1201 1896.5C1198.9 1896.5 1200.9 1896.7 1202.5 1896.7C1183.3 1896.7 1161.7 1896 1140.6 1896.4C1149.2 1896.5 1162.4 1896.3 1169.3 1896.7C1167 1896.8 1157.7 1896.6 1151.2 1896.7C1159.1 1897 1164.4 1896.9 1173.8 1897C1166.9 1896.6 1179.9 1897 1185.9 1896.9C1170.7 1897.2 1153.3 1897.3 1163.3 1898C1185 1898.1 1188.1 1898.1 1202.6 1898.1C1199.9 1897.9 1197 1898.1 1199.6 1897.7C1197.1 1897.7 1194.6 1897.7 1192.1 1897.7C1200.2 1897.7 1205.2 1897.2 1216.3 1897.2C1215.8 1897.3 1212.5 1897.3 1210.3 1897.3C1211.3 1897.6 1215.4 1897.7 1220.9 1897.7C1220.6 1897.9 1213.7 1897.8 1214.9 1898.1C1215.9 1898.4 1218.1 1898 1220.9 1898.1C1221.6 1898.4 1214 1898.2 1213.3 1898.4C1219.7 1898.4 1227.1 1898.6 1239 1898.6C1238.3 1898.7 1237.1 1898.8 1234.5 1898.8C1238.2 1899 1246.6 1898.8 1251.1 1898.8C1250.3 1899.2 1258.3 1899.1 1258.6 1899.5C1249.4 1899.1 1246.6 1899.7 1243.5 1899.2C1237.2 1899.8 1222.2 1899.4 1208.8 1899.6C1215.9 1899.7 1226.1 1899.7 1234.5 1899.8C1233.5 1899.9 1231.3 1900 1228.5 1900C1229.1 1900.1 1234.4 1900.3 1233 1900C1237.6 1900.2 1228.6 1900.3 1227 1900.4C1229 1900.4 1231 1900.4 1230 1900.8C1223.2 1900.9 1210 1900.3 1201.3 1900.8C1199.3 1900.7 1196.7 1900.7 1195.3 1900.5C1190 1900.6 1187.4 1900.9 1178.7 1900.8C1187.8 1900.6 1175.2 1900.6 1174.2 1900.3C1173.9 1900.6 1154.9 1900.4 1147 1900.6C1154.5 1900.8 1171.5 1900.7 1177.2 1900.7C1176.1 1900.8 1174.4 1900.8 1172.7 1900.9C1186.7 1901 1202.7 1901.2 1216.5 1900.8C1217 1901.1 1223.4 1901 1227.1 1901.2C1232.6 1901.2 1231.5 1900.8 1237.7 1900.8C1238.6 1901.4 1235.5 1901.5 1225.6 1901.6C1236.8 1901.7 1254.8 1901.4 1258.8 1902.5C1248.8 1901.9 1234.8 1901.8 1218 1901.9C1224 1902.1 1239.4 1901.8 1243.7 1902.2C1239.3 1902.2 1239.4 1902.4 1236.1 1902.5C1239.8 1902.8 1237.6 1902.6 1243.7 1902.9C1240.7 1903.1 1236.1 1902.7 1230.1 1902.8C1227.7 1903.1 1239.9 1903 1231.6 1903.1C1230.9 1903.2 1237.2 1903.4 1237.6 1903.2C1237.2 1903.3 1231.7 1903.7 1233.1 1904C1224.9 1904.1 1228.7 1903.9 1219.5 1904.1C1222.9 1904.6 1233.5 1903.9 1237.6 1904.2C1236.1 1904 1244.2 1903.6 1236.1 1903.6C1240.1 1903.2 1244.3 1903.6 1248.2 1903.9C1246.9 1904.2 1243.3 1903.8 1240.7 1903.9C1236.9 1904.6 1258.7 1905.5 1246.7 1905.8C1245.7 1906 1249.8 1906 1251.2 1906.1C1243.7 1906.5 1234.7 1906.2 1225.5 1906.5C1228.6 1906.6 1242 1906.6 1245.1 1906.5C1250 1906.6 1243.7 1906.8 1240.6 1906.7C1243.5 1907.3 1264.5 1906.8 1269.3 1906.9C1270.7 1907.1 1257.9 1907.3 1255.7 1907.6C1253.9 1907.5 1253 1907.3 1248.1 1907.4C1253.8 1907.2 1246.4 1907.3 1249.6 1907C1243.6 1907.4 1238.4 1907.3 1231.5 1907.7C1238.5 1908.1 1247.8 1907.9 1257.2 1908.4C1265.2 1908.2 1269 1908.2 1276.8 1908.4C1276.4 1908.2 1267 1908.4 1271.9 1908.7ZM735.9 1911C733.3 1911.3 720.4 1910.9 717.8 1911.2C773.6 1911.3 839.5 1911.8 888.4 1911.2C882.3 1911.1 872.3 1911.3 868.8 1911.1C870.6 1911.1 872.2 1911 873.3 1910.9C853.7 1911.1 807.7 1910.8 781.2 1911.1C783 1911.1 785.5 1911.1 785.7 1911C771.9 1911 737.6 1910.7 735.9 1911ZM1244.7 1905.2C1244.7 1905 1244.7 1904.8 1244.7 1904.7C1220.9 1904.6 1190 1904.4 1164.7 1904.7C1187.8 1904.7 1205.1 1904.8 1220.6 1905C1219.4 1905.1 1223.2 1905.1 1217.6 1905.3C1230.1 1905.3 1233.2 1905 1244.7 1905.2ZM1207 1900.3C1198.1 1900.3 1181.7 1899.9 1170.8 1900.2C1176 1900.2 1190.9 1900.1 1182.9 1900.4C1189.2 1900.6 1200.6 1900.4 1207 1900.3ZM283 1897.1C287.4 1897.2 284.7 1897.2 284.5 1897.5C294.1 1897.6 302.7 1897.7 314.7 1897.7C310.2 1897.1 294.9 1896.6 283 1897.1ZM382.7 1897.3C382.5 1896.9 361.6 1896.9 361.6 1897.3C369.4 1897.4 373 1897.3 382.7 1897.3ZM692.2 1896.8C692.1 1896.9 690.3 1896.9 690.7 1896.7C685.6 1897 677.9 1896.7 671.1 1896.9C674.3 1897 668.9 1896.9 668.1 1897.1C666.2 1897 665 1897.1 660.5 1897.1C648.3 1897.3 689.3 1897.2 692.2 1897.1C692.2 1897.1 693.4 1897.2 693.7 1897.1C689 1897.1 697.5 1896.8 692.2 1896.8ZM775.2 1896.7C791.6 1896.6 750.6 1896.5 770.7 1896.6C749.2 1896.5 713.4 1896.6 695.2 1896.9C723.1 1896.8 747.9 1896.9 775.2 1896.7ZM743.5 1896.1C736.2 1895.9 735 1896.2 728.4 1895.9C658.7 1896.5 607.4 1895.9 544.2 1896C602.8 1897 677.9 1896.3 743.5 1896.1ZM652.9 1896C657.5 1895.9 665.9 1896.1 668 1895.9C663.4 1896 655 1895.8 652.9 1896ZM846.1 1894.8C848.5 1895.1 857 1895.1 862.7 1895C857.2 1894.9 853.8 1894.8 846.1 1894.8ZM630.3 1911.5C621.3 1911.8 611.7 1911.6 603.1 1911.6C596.7 1911.5 616.4 1911.5 606.1 1911.4C610.4 1911.3 623.2 1911.4 630.3 1911.5ZM1220.6 1911C1223.9 1911.2 1222.8 1911.2 1225.1 1911.5C1222.3 1911.4 1218 1911.4 1214.5 1911.3C1216.9 1911.3 1219.8 1911.2 1220.6 1911C1221.4 1911 1222.3 1911 1220.6 1911Z" fill="#FF0000"/>
</svg>
